<?xml version="1.0" encoding="UTF-8"?>
<!-- Generator: visioncortex VTracer 0.6.3 -->
<svg version="1.1" xmlns="http://www.w3.org/2000/svg" width="1280" height="1053">
<path d="M0 0 C30.11 0 30.11 0 43.59 1.17 C45.99 1.38 48.39 1.57 50.79 1.76 C58.16 2.35 65.39 3.1 72.65 4.54 C76.96 5.38 81.31 5.81 85.67 6.3 C90.8 6.9 90.8 6.9 93 8 C94.96 8.16 96.92 8.28 98.88 8.38 C107.67 8.99 115.67 11.22 124 14 C126.05 14.45 128.1 14.9 130.15 15.35 C135.49 16.57 140.8 17.93 146.1 19.29 C147.44 19.64 148.78 19.98 150.12 20.31 C162.42 23.41 174.46 27.05 186.2 31.9 C190.68 33.66 195.22 35.23 199.76 36.81 C213.47 41.59 213.47 41.59 218.88 44.44 C223.04 46.57 227.25 48.34 231.61 50.02 C235.18 51.48 238.56 53.25 242 55 C242.99 55.33 243.98 55.66 245 56 C245 56.66 245 57.32 245 58 C245.79 58.06 246.58 58.13 247.4 58.19 C252.29 59.29 256.25 61.54 260.62 63.94 C262.3 64.84 263.98 65.75 265.66 66.65 C266.4 67.05 267.14 67.46 267.9 67.87 C269.3 68.62 270.71 69.35 272.14 70.05 C274.29 71.15 276.09 72.53 278 74 C278.66 74.33 279.32 74.66 280 75 C280 75.66 280 76.32 280 77 C280.89 77.1 281.78 77.19 282.69 77.29 C286.26 78.06 288.06 79.13 290.94 81.31 C295.59 84.72 300.24 87.52 305.32 90.25 C306.12 90.68 306.93 91.11 307.75 91.56 C308.49 91.96 309.22 92.35 309.98 92.75 C312 94 312 94 313.58 95.59 C315.06 97.27 315.06 97.27 318 98 C318 98.66 318 99.32 318 100 C319.32 100.33 320.64 100.66 322 101 C322 101.66 322 102.32 322 103 C322.58 103.28 323.16 103.56 323.75 103.84 C330.81 107.48 337.02 112.5 343.24 117.38 C346.34 119.78 349.45 121.99 352.81 124 C353.86 124.66 354.92 125.32 356 126 C356 126.66 356 127.32 356 128 C356.54 128.21 357.08 128.42 357.63 128.64 C360.89 130.51 363.29 133.12 365.88 135.81 C369.74 139.81 373.68 143.49 378 147 C379.76 148.5 381.51 150.01 383.25 151.52 C384.41 152.5 385.59 153.47 386.78 154.42 C388.22 155.57 389.61 156.78 391 158 C391 158.66 391 159.32 391 160 C391.99 160.33 392.98 160.66 394 161 C394 161.66 394 162.32 394 163 C394.62 163.25 395.24 163.5 395.88 163.75 C398.39 165.23 398.76 166.44 400 169 C400.99 169.33 401.98 169.66 403 170 C404.37 171.64 405.69 173.31 407 175 C408.18 176.14 408.18 176.14 409.38 177.31 C412.14 180.14 414.38 183.12 416.67 186.33 C417.91 188.13 417.91 188.13 420 189 C420 189.66 420 190.32 420 191 C420.66 191 421.32 191 422 191 C423.73 192.68 423.73 192.68 425.62 194.88 C426.57 195.95 426.57 195.95 427.54 197.05 C429 199 429 199 429 201 C429.99 201.33 430.98 201.66 432 202 C432 202.66 432 203.32 432 204 C432.99 204.33 433.98 204.66 435 205 C436.03 206.98 437.03 208.98 438 211 C438.98 212.02 439.98 213.02 441 214 C441 214.66 441 215.32 441 216 C441.99 216.33 442.98 216.66 444 217 C444.46 218.7 444.46 218.7 444.94 220.44 C445.29 221.61 445.64 222.79 446 224 C446.6 224.3 447.2 224.6 447.82 224.9 C450.8 226.4 451.99 228.4 453.88 231.12 C456.79 235.27 459.76 239.34 462.87 243.34 C464 245 464 245 465 248 C465.66 248.33 466.32 248.66 467 249 C467 249.66 467 250.32 467 251 C467.66 251 468.32 251 469 251 C469.29 251.97 469.58 252.94 469.88 253.94 C470.64 257.11 470.64 257.11 473 258 C473.96 259.67 473.96 259.67 474.94 261.75 C476.48 264.95 478.15 267.97 480 271 C481.25 273.3 482.49 275.6 483.72 277.91 C484.91 280.03 484.91 280.03 486.59 281.59 C488.67 283.68 489.08 286.23 490 289 C491.5 290.67 491.5 290.67 493 292 C493.33 292.99 493.66 293.98 494 295 C494.66 295.99 495.32 296.98 496 298 C497.07 300.41 498.1 302.82 499.12 305.25 C501.88 311.7 504.94 317.9 508.33 324.04 C510.13 327.3 511.69 330.52 513 334 C513.37 334.85 513.74 335.69 514.12 336.56 C515 339 515 339 515 343 C515.99 343.33 516.98 343.66 518 344 C519.63 347.79 520.85 351.46 521.94 355.44 C522.76 358.21 523.65 360.48 524.88 363.06 C527.22 368.12 528.58 373.38 529.97 378.77 C530.96 381.89 532.29 384.23 534 387 C534 388.67 534 390.33 534 392 C534.5 392.62 534.99 393.24 535.5 393.88 C537.64 396.9 537.21 399.39 537 403 C537.66 403 538.32 403 539 403 C539.12 403.74 539.24 404.47 539.37 405.23 C539.62 406.69 539.62 406.69 539.88 408.19 C540.04 409.15 540.2 410.11 540.37 411.11 C540.98 413.92 541.93 416.34 543 419 C543.34 421.1 543.34 421.1 543.5 423.06 C543.75 426.77 543.75 426.77 545 428.96 C546.43 431.88 546.44 434.67 546.66 437.88 C546.9 440.3 546.9 440.3 549 443 C549.34 445.12 549.34 445.12 549.5 447.44 C549.67 449.94 549.81 451.65 551 453.87 C552.08 456.18 552.28 457.73 552.34 460.26 C552.39 461.44 552.39 461.44 552.43 462.65 C552.48 464.31 552.52 465.96 552.57 467.62 C552.6 468.41 552.63 469.2 552.66 470.01 C552.68 471.09 552.68 471.09 552.71 472.18 C552.86 474.25 552.86 474.25 555 476 C555.32 478.06 555.32 478.06 555.41 480.57 C555.45 481.47 555.49 482.36 555.53 483.29 C555.56 484.22 555.59 485.16 555.62 486.12 C555.68 487.54 555.68 487.54 555.74 488.99 C555.84 491.33 555.92 493.66 556 496 C556.66 496.33 557.32 496.66 558 497 C560.16 510.02 559.1 523.86 559 537 C559.66 537.33 560.32 537.66 561 538 C561.41 540.97 561.41 540.97 561.62 544.94 C561.65 545.66 561.69 546.38 561.73 547.12 C562.13 555.39 562.14 563.65 562.13 571.93 C562.13 573.68 562.13 575.44 562.13 577.19 C562.14 581.96 562.13 586.73 562.13 591.5 C562.13 596.67 562.13 601.83 562.13 606.99 C562.14 617.08 562.14 627.18 562.14 637.27 C562.13 645.47 562.13 653.66 562.13 661.86 C562.13 663.61 562.13 663.61 562.13 665.4 C562.13 667.78 562.13 670.15 562.14 672.52 C562.14 694.75 562.13 716.97 562.13 739.19 C562.12 758.27 562.13 777.35 562.13 796.43 C562.14 818.6 562.14 840.76 562.13 862.93 C562.13 865.29 562.13 867.65 562.13 870.01 C562.13 871.17 562.13 872.34 562.13 873.53 C562.13 881.73 562.13 889.93 562.14 898.12 C562.14 908.1 562.14 918.07 562.13 928.05 C562.13 933.14 562.13 938.23 562.13 943.32 C562.14 947.98 562.13 952.63 562.13 957.29 C562.13 958.98 562.13 960.67 562.13 962.36 C562.13 964.64 562.13 966.92 562.13 969.21 C562.13 970.48 562.13 971.75 562.13 973.06 C562 976 562 976 561 978 C525.36 978 489.72 978 453 978 C453 977.34 453 976.68 453 976 C451.58 976.03 451.58 976.03 450.12 976.06 C447 976 447 976 445 975 C442.63 974.61 440.25 974.26 437.88 973.94 C436.59 973.76 435.31 973.58 433.99 973.4 C433 973.27 432.02 973.14 431 973 C431 972.34 431 971.68 431 971 C430.41 971.03 429.82 971.07 429.21 971.11 C423.99 971.28 421.47 970.79 417 968 C414.72 967.63 412.49 967.44 410.18 967.31 C407.75 966.97 406.19 966.09 404 965 C402.12 964.59 400.22 964.24 398.31 963.94 C393.1 963.1 393.1 963.1 392 962 C389.1 961.54 386.19 961.16 383.27 960.79 C380.03 960.01 377.7 958.74 374.87 957.01 C371.6 955.24 368.08 954.39 364.5 953.44 C359.11 951.98 354.09 950.31 349 948 C349 947.34 349 946.68 349 946 C347.89 946.02 346.77 946.04 345.62 946.06 C342 946 342 946 340 945 C340 944.34 340 943.68 340 943 C339.46 942.95 338.93 942.9 338.38 942.84 C330.01 941.63 323.22 937.81 315.84 933.94 C312.3 932.13 308.65 930.57 305 929 C305 928.34 305 927.68 305 927 C304.03 926.88 303.06 926.75 302.06 926.62 C301.05 926.42 300.04 926.21 299 926 C298.67 925.34 298.34 924.68 298 924 C295.47 923.34 295.47 923.34 293 923 C293 922.34 293 921.68 293 921 C291.97 920.73 290.94 920.46 289.88 920.19 C286.32 919.26 283.26 917.68 280 916 C278.98 915.48 277.97 914.96 276.92 914.42 C270.68 911.13 264.85 907.64 259.14 903.5 C256.56 901.69 253.84 900.36 251 899 C248.99 897.69 246.99 896.35 245 895 C242.56 893.51 240.1 892.06 237.64 890.61 C230.45 886.23 223.81 881.15 217.32 875.8 C215 873.92 215 873.92 212.21 872.39 C211.48 871.93 210.75 871.47 210 871 C210 870.34 210 869.68 210 869 C209.47 868.75 208.94 868.5 208.39 868.25 C205.38 866.68 202.59 864.86 199.75 863 C198.67 862.3 197.59 861.6 196.48 860.88 C195.25 859.95 195.25 859.95 194 859 C194 858.34 194 857.68 194 857 C193.46 856.77 192.93 856.55 192.38 856.31 C187.17 853.44 183.17 849.17 179 845 C174.38 840.75 169.71 836.57 164.88 832.56 C163.93 831.72 162.98 830.87 162 830 C162 829.34 162 828.68 162 828 C161.01 828 160.02 828 159 828 C159 827.01 159 826.02 159 825 C158.43 824.75 157.86 824.5 157.27 824.25 C154.65 822.81 152.85 821.12 150.75 819 C150.04 818.3 149.34 817.6 148.61 816.88 C147 815 147 815 147 813 C146.01 812.67 145.02 812.34 144 812 C142.39 810.4 142.39 810.4 140.69 808.38 C140.08 807.66 139.47 806.94 138.84 806.2 C138.23 805.47 137.62 804.75 137 804 C133.78 800.2 130.58 796.47 127 793 C123.75 789.83 120.68 786.68 118 783 C118 782.34 118 781.68 118 781 C117.34 781 116.68 781 116 781 C114.39 779.12 112.9 777.24 111.44 775.25 C110.82 774.44 110.82 774.44 110.19 773.62 C108.05 770.75 106.84 768.44 106 765 C105.01 764.67 104.02 764.34 103 764 C101.68 762.29 101.68 762.29 100.44 760.19 C100.02 759.5 99.61 758.81 99.18 758.11 C98.06 756.1 97.01 754.07 96 752 C95.34 752 94.68 752 94 752 C92.53 750.14 92.53 750.14 90.94 747.69 C90.41 746.89 89.88 746.09 89.34 745.26 C88 743 88 743 87 740 C86.34 740 85.68 740 85 740 C83.53 737.92 83.53 737.92 81.94 735.19 C81.15 733.85 81.15 733.85 80.34 732.48 C79 730 79 730 78 727 C77 726 76 725 75 724 C73.94 722.13 73.94 722.13 73 720.12 C71.84 717.69 70.66 715.44 69.25 713.12 C68 711 68 711 68 709 C67.34 709 66.68 709 66 709 C65.33 707.71 64.66 706.42 64 705.12 C63.63 704.41 63.26 703.69 62.88 702.95 C62 701 62 701 62 699 C61.34 699 60.68 699 60 699 C59.32 697.58 59.32 697.58 58.62 696.12 C57.2 693 57.2 693 55 691 C54.12 689.25 53.29 687.48 52.5 685.69 C52.08 684.74 51.65 683.8 51.22 682.82 C49.11 677.94 47.41 673.14 46 668 C45.34 668 44.68 668 44 668 C43.65 667.09 43.65 667.09 43.3 666.16 C41.6 661.79 39.81 657.5 37.69 653.31 C32.24 642.56 27.53 632.18 24.11 620.62 C23.23 617.75 22.28 615.02 21.12 612.25 C16.19 600.31 11.93 588.12 9.24 575.47 C8.46 571.79 7.4 568.48 6 565 C5.43 562.25 5 559.49 4.56 556.72 C4.08 553.97 4.08 553.97 2.95 551.39 C1.69 548.21 1.87 545.39 2 542 C1.34 542 0.68 542 0 542 C0 363.14 0 184.28 0 0 Z M411 181 C412 183 412 183 412 183 Z " fill="#05C956" transform="translate(0,75)"/>
<path d="M0 0 C1.42 2.2 1.78 4.17 2.12 6.75 C2.79 6.75 3.44 6.75 4.12 6.75 C4.56 8.08 4.56 8.08 5 9.44 C6.04 12.66 6.04 12.66 7.25 15.31 C8.2 17.95 8.28 19.97 8.12 22.75 C8.79 22.75 9.44 22.75 10.12 22.75 C10.45 25.72 10.79 28.69 11.12 31.75 C11.79 31.75 12.44 31.75 13.12 31.75 C13.58 33.74 14.04 35.72 14.49 37.71 C15.11 40.03 15.11 40.03 17.12 42.75 C18.94 48.07 19.76 53.42 20.56 58.98 C21.1 61.6 21.94 63.39 23.12 65.75 C23.47 68.08 23.63 70.38 23.78 72.73 C23.96 74.97 23.96 74.97 26.12 76.75 C26.38 78.89 26.53 81.04 26.62 83.19 C26.79 88.3 26.79 88.3 29.12 92.75 C29.44 94.74 29.44 94.74 29.54 96.98 C29.58 97.78 29.62 98.59 29.66 99.41 C29.7 100.66 29.7 100.66 29.75 101.94 C29.79 102.78 29.83 103.63 29.87 104.5 C29.96 106.58 30.04 108.67 30.12 110.75 C30.79 110.75 31.44 110.75 32.12 110.75 C32.45 124.28 32.79 137.81 33.12 151.75 C33.79 151.75 34.45 151.75 35.12 151.75 C35.12 159.67 35.12 167.59 35.12 175.75 C34.47 175.75 33.81 175.75 33.12 175.75 C33.11 176.95 33.09 178.15 33.06 179.39 C32.99 183.84 32.9 188.28 32.81 192.73 C32.77 194.66 32.73 196.58 32.7 198.51 C32.66 201.27 32.6 204.04 32.54 206.8 C32.53 207.67 32.52 208.53 32.5 209.42 C32.35 215.52 32.35 215.52 30.12 217.75 C29.79 220.03 29.79 220.03 29.78 222.65 C29.75 223.62 29.72 224.6 29.69 225.6 C29.67 226.62 29.65 227.64 29.62 228.69 C29.58 230.7 29.53 232.71 29.47 234.71 C29.44 236.05 29.44 236.05 29.41 237.42 C29.12 239.75 29.12 239.75 27.12 242.75 C26.74 245.16 26.74 245.16 26.62 247.75 C26.41 251.42 26.24 252.58 24.12 255.75 C23.71 257.96 23.71 257.96 23.56 260.31 C23.22 264.56 23.22 264.56 22.12 266.75 C21.46 266.75 20.81 266.75 20.12 266.75 C20.15 267.44 20.17 268.12 20.2 268.83 C20.21 269.73 20.23 270.63 20.25 271.56 C20.27 272.46 20.3 273.35 20.32 274.27 C20.12 276.75 20.12 276.75 18.12 279.75 C17.46 282.03 17.46 282.03 17 284.44 C16.83 285.25 16.66 286.05 16.49 286.89 C16.37 287.5 16.25 288.12 16.12 288.75 C15.46 288.75 14.81 288.75 14.12 288.75 C14.22 290.3 14.22 290.3 14.31 291.88 C14.11 296.06 13.06 298.1 11.12 301.75 C10.42 304.99 10.42 304.99 10.12 307.75 C9.46 307.75 8.81 307.75 8.12 307.75 C8.22 309.08 8.22 309.08 8.31 310.44 C8.1 314.18 7.17 315.68 5.12 318.75 C4.04 321.31 3.07 323.89 2.12 326.5 C1.12 328.75 1.12 328.75 -0.88 329.75 C-1.46 331.9 -1.46 331.9 -1.81 334.44 C-2.57 338.65 -3.71 342.01 -5.88 345.75 C-6.54 345.75 -7.19 345.75 -7.88 345.75 C-8 346.51 -8.12 347.28 -8.25 348.06 C-8.88 350.75 -8.88 350.75 -10.88 353.75 C-11.51 355.86 -11.51 355.86 -11.88 357.75 C-12.54 357.75 -13.19 357.75 -13.88 357.75 C-13.96 358.47 -14.04 359.19 -14.12 359.94 C-15.03 363.34 -16.48 365.2 -18.88 367.75 C-19.54 367.75 -20.19 367.75 -20.88 367.75 C-21.2 369.73 -21.54 371.71 -21.88 373.75 C-22.54 373.75 -23.19 373.75 -23.88 373.75 C-23.98 374.68 -24.08 375.61 -24.19 376.56 C-24.88 379.77 -25.26 380.87 -27.88 382.75 C-28.54 382.75 -29.19 382.75 -29.88 382.75 C-29.88 384.4 -29.88 386.05 -29.88 387.75 C-30.87 388.08 -31.86 388.41 -32.88 388.75 C-32.98 389.49 -33.08 390.23 -33.18 390.99 C-33.95 394.04 -34.94 395.48 -36.94 397.88 C-40.54 402.29 -43.83 406.88 -47.08 411.56 C-48.88 413.75 -48.88 413.75 -51.88 414.75 C-51.91 415.6 -51.94 416.45 -51.97 417.32 C-53.22 422.05 -55.82 424.33 -59.31 427.62 C-60.21 428.51 -60.21 428.51 -61.13 429.42 C-65.58 433.75 -65.58 433.75 -67.88 433.75 C-67.96 434.47 -68.04 435.19 -68.12 435.94 C-69.03 439.34 -70.48 441.2 -72.88 443.75 C-73.54 443.75 -74.19 443.75 -74.88 443.75 C-75.11 444.31 -75.35 444.87 -75.59 445.45 C-77.16 448.27 -79.09 450.23 -81.38 452.5 C-82.17 453.3 -82.96 454.1 -83.78 454.92 C-85.88 456.75 -85.88 456.75 -87.88 456.75 C-88.2 457.74 -88.54 458.73 -88.88 459.75 C-89.54 459.75 -90.19 459.75 -90.88 459.75 C-91.2 460.74 -91.54 461.73 -91.88 462.75 C-92.54 462.75 -93.19 462.75 -93.88 462.75 C-94.2 463.74 -94.54 464.73 -94.88 465.75 C-97.96 468.98 -101.21 472.14 -105.44 473.69 C-108.89 475.19 -110.59 477.79 -112.98 480.65 C-116.36 484.4 -120.4 487.55 -124.96 489.76 C-127.79 491.22 -129.66 493.48 -131.88 495.75 C-135.39 498.75 -135.39 498.75 -138.88 498.75 C-139.08 499.35 -139.29 499.95 -139.5 500.56 C-141.4 503.59 -143.63 504.4 -146.88 505.75 C-147.54 505.75 -148.19 505.75 -148.88 505.75 C-148.88 506.41 -148.88 507.07 -148.88 507.75 C-155.5 511.75 -155.5 511.75 -158.88 511.75 C-158.88 512.41 -158.88 513.07 -158.88 513.75 C-159.58 513.98 -160.28 514.2 -161 514.44 C-163.55 515.6 -164.91 516.55 -166.94 518.38 C-169.88 520.75 -169.88 520.75 -173.88 520.75 C-173.88 521.41 -173.88 522.07 -173.88 522.75 C-176.1 523.88 -178.33 525 -180.56 526.12 C-181.5 526.6 -181.5 526.6 -182.46 527.09 C-185.16 528.44 -187.84 529.74 -190.64 530.85 C-193.1 531.75 -193.1 531.75 -195.88 533.75 C-199.13 535.66 -202.15 536.24 -205.88 536.75 C-205.88 537.41 -205.88 538.07 -205.88 538.75 C-207.86 539.08 -209.84 539.41 -211.88 539.75 C-211.88 540.41 -211.88 541.07 -211.88 541.75 C-213.86 542.08 -215.84 542.41 -217.88 542.75 C-217.88 543.41 -217.88 544.07 -217.88 544.75 C-223.21 546.67 -228.22 548.15 -233.88 548.75 C-233.88 549.41 -233.88 550.07 -233.88 550.75 C-239.27 553.83 -243.67 555.31 -249.88 555.75 C-249.88 556.41 -249.88 557.07 -249.88 557.75 C-251.86 558.08 -253.84 558.41 -255.88 558.75 C-255.88 559.41 -255.88 560.07 -255.88 560.75 C-258.85 561.08 -261.82 561.41 -264.88 561.75 C-265.21 562.74 -265.53 563.73 -265.88 564.75 C-267.86 564.75 -269.84 564.75 -271.88 564.75 C-271.88 565.41 -271.88 566.07 -271.88 566.75 C-277.27 569.83 -281.67 571.31 -287.88 571.75 C-287.88 572.41 -287.88 573.07 -287.88 573.75 C-289.5 574.44 -291.12 575.13 -292.74 575.82 C-294.23 576.47 -295.7 577.14 -297.17 577.84 C-304.54 581.31 -304.54 581.31 -308.88 580.75 C-308.88 581.41 -308.88 582.07 -308.88 582.75 C-311.18 583.08 -313.5 583.41 -315.88 583.75 C-315.88 584.41 -315.88 585.07 -315.88 585.75 C-317.23 586.38 -318.58 587 -319.94 587.62 C-321.07 588.15 -321.07 588.15 -322.22 588.68 C-324.87 589.75 -324.87 589.75 -328.25 590.66 C-333.32 592.18 -337.72 594.69 -342.38 597.19 C-346.1 598.85 -348.86 599.38 -352.88 599.75 C-352.88 600.41 -352.88 601.07 -352.88 601.75 C-355.18 602.08 -357.5 602.41 -359.88 602.75 C-359.88 603.41 -359.88 604.07 -359.88 604.75 C-361.86 605.08 -363.84 605.41 -365.88 605.75 C-365.88 606.41 -365.88 607.07 -365.88 607.75 C-368.85 608.08 -371.82 608.41 -374.88 608.75 C-374.88 609.41 -374.88 610.07 -374.88 610.75 C-376.29 611.43 -377.71 612.09 -379.12 612.75 C-379.91 613.12 -380.7 613.49 -381.52 613.88 C-383.88 614.75 -383.88 614.75 -387.88 614.75 C-387.88 615.41 -387.88 616.07 -387.88 616.75 C-391.17 617.41 -394.48 618.07 -397.88 618.75 C-397.88 619.41 -397.88 620.07 -397.88 620.75 C-402.84 623.04 -407.31 624.75 -412.88 624.75 C-413.21 625.74 -413.53 626.73 -413.88 627.75 C-415.86 627.75 -417.84 627.75 -419.88 627.75 C-419.88 628.41 -419.88 629.07 -419.88 629.75 C-424.6 633.03 -428.63 633.92 -434.31 634.12 C-435.24 634.17 -436.17 634.22 -437.12 634.27 C-441.1 633.52 -442.38 631.92 -444.88 628.75 C-446.3 625.95 -447.38 623.08 -448.44 620.12 C-448.73 619.32 -449.03 618.52 -449.34 617.7 C-449.93 616.11 -450.51 614.51 -451.09 612.92 C-451.75 611.09 -452.44 609.26 -453.14 607.44 C-454.76 603.19 -456.09 599.08 -457 594.62 C-457.29 593.35 -457.58 592.07 -457.88 590.75 C-458.53 590.42 -459.2 590.09 -459.88 589.75 C-461.13 586.65 -461.87 583.8 -462.32 580.49 C-462.88 576.73 -463.74 573.22 -464.75 569.56 C-465.11 568.24 -465.47 566.91 -465.83 565.59 C-466.17 564.32 -466.52 563.06 -466.88 561.75 C-469.11 553.46 -470.67 545.25 -471.88 536.75 C-472.26 534.15 -472.64 531.55 -473.03 528.95 C-473.3 527.18 -473.56 525.41 -473.82 523.64 C-473.94 522.82 -474.07 522 -474.19 521.16 C-474.3 520.43 -474.41 519.7 -474.52 518.95 C-474.76 517.44 -475.05 515.94 -475.39 514.45 C-476 511.04 -476.21 507.64 -476.39 504.19 C-476.44 503.45 -476.48 502.71 -476.52 501.95 C-477 492.87 -477.32 483.78 -477.56 474.69 C-477.59 473.79 -477.61 472.89 -477.64 471.96 C-478.07 454.79 -477.38 437.85 -475.88 420.75 C-475.22 420.75 -474.55 420.75 -473.88 420.75 C-473.86 420.11 -473.84 419.47 -473.81 418.81 C-473.72 415.89 -473.61 412.98 -473.5 410.06 C-473.47 409.06 -473.44 408.05 -473.41 407.01 C-473.37 406.03 -473.33 405.06 -473.29 404.05 C-473.24 402.71 -473.24 402.71 -473.19 401.34 C-472.85 398.53 -471.98 396.35 -470.88 393.75 C-470.6 391.82 -470.39 389.88 -470.25 387.94 C-470.18 386.96 -470.1 385.99 -470.02 384.98 C-469.97 384.24 -469.93 383.51 -469.88 382.75 C-469.22 382.75 -468.55 382.75 -467.88 382.75 C-466.88 375.33 -466.88 375.33 -465.88 367.75 C-465.22 367.75 -464.55 367.75 -463.88 367.75 C-463.9 366.53 -463.92 365.32 -463.94 364.06 C-463.94 360.83 -463.66 357.9 -462.88 354.75 C-462.54 354.75 -462.22 354.75 -461.88 354.75 C-461.22 351.78 -460.55 348.81 -459.88 345.75 C-459.22 345.75 -458.55 345.75 -457.88 345.75 C-457.8 344.74 -457.8 344.74 -457.73 343.7 C-457.65 342.81 -457.58 341.92 -457.5 341 C-457.43 340.12 -457.36 339.24 -457.29 338.33 C-456.87 335.74 -456.11 334.03 -454.88 331.75 C-454.63 330.51 -454.63 330.51 -454.38 329.25 C-453.87 326.75 -453.01 325.02 -451.88 322.75 C-451.71 321.86 -451.54 320.98 -451.38 320.06 C-451.21 319.3 -451.04 318.54 -450.88 317.75 C-450.22 317.42 -449.55 317.09 -448.88 316.75 C-448.71 315.6 -448.54 314.44 -448.38 313.25 C-448.21 312.1 -448.04 310.94 -447.88 309.75 C-447.22 309.42 -446.55 309.09 -445.88 308.75 C-443.46 304.53 -442.09 300.42 -440.88 295.75 C-440.22 295.75 -439.55 295.75 -438.88 295.75 C-438.69 294.11 -438.69 294.11 -438.5 292.44 C-437.88 288.75 -437.88 288.75 -435.88 285.75 C-434.86 283.76 -433.86 281.76 -432.88 279.75 C-432.21 278.42 -431.54 277.08 -430.88 275.75 C-430.54 275.75 -430.22 275.75 -429.88 275.75 C-429.22 273.77 -428.55 271.79 -427.88 269.75 C-427.22 269.75 -426.55 269.75 -425.88 269.75 C-425.75 269.15 -425.63 268.55 -425.5 267.94 C-424.88 265.75 -424.88 265.75 -422.88 262.75 C-422.73 261.93 -422.59 261.1 -422.44 260.25 C-421.81 257.45 -421.13 256.46 -418.88 254.75 C-418.22 254.75 -417.55 254.75 -416.88 254.75 C-416.75 253.78 -416.63 252.81 -416.5 251.81 C-416.29 250.8 -416.09 249.79 -415.88 248.75 C-415.22 248.42 -414.55 248.09 -413.88 247.75 C-413.42 246.62 -412.97 245.48 -412.5 244.31 C-410.77 240.52 -410.41 240.28 -406.88 238.75 C-406.19 236.86 -406.19 236.86 -405.88 234.75 C-404.79 231.8 -403.24 230.06 -401 227.94 C-398.72 225.76 -397.17 223.72 -395.69 220.94 C-393.88 217.75 -393.88 217.75 -390.88 216.75 C-390.51 215.43 -390.18 214.09 -389.88 212.75 C-388.89 211.4 -387.9 210.07 -386.88 208.75 C-386.54 207.76 -386.22 206.77 -385.88 205.75 C-384.88 205.42 -383.89 205.09 -382.88 204.75 C-381.67 202.75 -381.67 202.75 -380.88 200.75 C-380.22 200.75 -379.56 200.75 -378.88 200.75 C-378.62 200.15 -378.36 199.56 -378.09 198.94 C-376.77 196.57 -375.49 195.37 -373.38 193.69 C-370.94 191.74 -369.65 190.42 -367.88 187.75 C-366.23 186.06 -364.56 184.4 -362.88 182.75 C-362.02 181.89 -361.16 181.03 -360.27 180.14 C-350.88 170.75 -350.88 170.75 -348.57 168.46 C-346.8 166.67 -345.03 164.88 -343.27 163.07 C-342.42 162.2 -341.57 161.33 -340.69 160.44 C-339.83 159.55 -338.97 158.67 -338.08 157.76 C-335.88 155.75 -335.88 155.75 -333.88 155.75 C-333.88 155.09 -333.88 154.43 -333.88 153.75 C-331.34 151.44 -328.98 149.8 -325.88 148.31 C-322.53 146.57 -320.46 144.47 -317.88 141.75 C-316.88 141.09 -315.89 140.43 -314.88 139.75 C-314.54 139.42 -314.22 139.09 -313.88 138.75 C-313.3 138.5 -312.72 138.25 -312.12 138 C-309.7 136.8 -309.7 136.8 -307.62 134.44 C-303.37 130.28 -298.4 127.45 -293.06 124.88 C-288.19 122.64 -288.19 122.64 -284.88 118.75 C-283.56 118.75 -282.24 118.75 -280.88 118.75 C-280.54 117.76 -280.22 116.77 -279.88 115.75 C-278.06 114.69 -278.06 114.69 -275.88 113.75 C-273.57 112.64 -271.43 111.47 -269.25 110.12 C-266.88 108.75 -266.88 108.75 -264.88 108.75 C-264.88 108.09 -264.88 107.43 -264.88 106.75 C-263.27 106.08 -261.67 105.41 -260.06 104.75 C-258.72 104.19 -258.72 104.19 -257.36 103.62 C-254.88 102.75 -254.88 102.75 -251.88 102.75 C-251.88 102.09 -251.88 101.43 -251.88 100.75 C-248.9 100.25 -248.9 100.25 -245.88 99.75 C-245.88 99.09 -245.88 98.43 -245.88 97.75 C-242.9 97.25 -242.9 97.25 -239.88 96.75 C-239.54 95.76 -239.22 94.77 -238.88 93.75 C-236.9 93.01 -234.89 92.36 -232.88 91.75 C-231.95 91.28 -231.02 90.8 -230.06 90.31 C-226.77 88.7 -223.52 87.58 -220.02 86.5 C-217.85 85.74 -215.91 84.8 -213.88 83.75 C-210.89 82.38 -207.88 81.07 -204.88 79.75 C-203.95 79.34 -203.02 78.93 -202.06 78.5 C-199.88 77.75 -199.88 77.75 -195.88 77.75 C-195.88 77.09 -195.88 76.43 -195.88 75.75 C-192.17 74.13 -188.48 72.58 -184.69 71.19 C-180.75 69.73 -177.38 68.08 -173.88 65.75 C-171.55 65.07 -169.21 64.4 -166.88 63.75 C-162.89 62.4 -159.4 61.1 -155.88 58.75 C-154.31 58.07 -152.72 57.43 -151.12 56.81 C-148.01 55.6 -144.93 54.35 -141.88 53 C-138.88 51.75 -138.88 51.75 -136.88 51.75 C-136.21 51.09 -135.56 50.43 -134.88 49.75 C-133.23 49.04 -131.55 48.38 -129.88 47.75 C-128.78 47.28 -127.69 46.8 -126.56 46.31 C-123.34 44.92 -120.07 43.69 -116.77 42.5 C-114.85 41.77 -114.85 41.77 -112.97 40.78 C-110.54 39.58 -108.06 38.71 -105.5 37.81 C-100.68 36.09 -96.22 34.06 -91.75 31.56 C-89.88 30.75 -89.88 30.75 -85.88 30.75 C-85.55 29.76 -85.21 28.77 -84.88 27.75 C-82.38 26.75 -82.38 26.75 -78.88 25.75 C-77.33 25.26 -75.79 24.76 -74.25 24.25 C-73.52 24.01 -72.78 23.78 -72.02 23.53 C-69.05 22.45 -66.35 21.01 -63.58 19.5 C-58.21 16.63 -53.95 15.09 -47.88 14.75 C-47.88 14.09 -47.88 13.43 -47.88 12.75 C-44.17 11.13 -40.48 9.58 -36.69 8.19 C-33.98 7.19 -31.44 6.08 -28.88 4.75 C-27.39 4.25 -27.39 4.25 -25.88 3.75 C-25.88 3.42 -25.88 3.09 -25.88 2.75 C-24.82 2.46 -23.77 2.17 -22.69 1.88 C-19.04 0.86 -19.04 0.86 -16.25 -0.31 C-10.92 -2.42 -5.06 -3.37 0 0 Z M30.12 194.75 C30.12 201.68 30.12 208.61 30.12 215.75 C30.45 215.75 30.79 215.75 31.12 215.75 C31.12 208.82 31.12 201.89 31.12 194.75 C30.8 194.75 30.46 194.75 30.12 194.75 Z M28.12 209.75 C29.12 212.75 29.12 212.75 29.12 212.75 Z M25.12 238.75 C26.12 240.75 26.12 240.75 26.12 240.75 Z M-88.88 453.75 C-89.2 454.74 -89.54 455.73 -89.88 456.75 C-88.88 456.42 -87.89 456.09 -86.88 455.75 C-86.88 455.09 -86.88 454.43 -86.88 453.75 C-87.54 453.75 -88.19 453.75 -88.88 453.75 Z M-102.88 466.75 C-103.2 467.41 -103.54 468.07 -103.88 468.75 C-103.21 468.75 -102.56 468.75 -101.88 468.75 C-102.2 468.09 -102.54 467.43 -102.88 466.75 Z M-105.88 469.75 C-104.88 471.75 -104.88 471.75 -104.88 471.75 Z M-123.88 484.75 C-122.88 486.75 -122.88 486.75 -122.88 486.75 Z M-136.88 494.75 C-135.88 496.75 -135.88 496.75 -135.88 496.75 Z M-154.88 506.75 C-154.55 507.41 -154.21 508.07 -153.88 508.75 C-153.55 508.09 -153.21 507.43 -152.88 506.75 C-153.54 506.75 -154.19 506.75 -154.88 506.75 Z " fill="#91DC1A" transform="translate(1132.875,157.25)"/>
<path d="M0 0 C1.5 0.22 1.5 0.22 3.03 0.44 C10.54 1.38 18.12 1.68 25.67 2.12 C27.72 2.25 29.77 2.37 31.82 2.5 C33.03 2.57 34.24 2.64 35.49 2.72 C40.38 3.11 45.21 3.83 50.05 4.68 C50.74 4.81 51.44 4.93 52.15 5.05 C55.11 5.58 58.06 6.11 61.01 6.64 C62.68 6.94 64.34 7.24 66.01 7.54 C70.59 8.39 74.89 9.55 79.28 11.09 C82.13 12.04 85 12.87 87.88 13.69 C99.26 16.94 110.7 20.51 121.18 26.09 C123.24 27.12 125.34 27.93 127.5 28.75 C132.27 30.62 136.85 32.8 141.44 35.06 C142.14 35.4 142.83 35.74 143.55 36.09 C146.88 37.76 149.43 39.35 152 42 C153.6 43.04 155.23 44.04 156.88 45 C157.72 45.5 158.56 45.99 159.43 46.5 C161.09 47.47 162.76 48.44 164.43 49.4 C167.49 51.31 170.32 53.44 173.19 55.62 C176.93 58.57 176.93 58.57 181 61 C181 61.66 181 62.32 181 63 C181.72 63.27 182.44 63.54 183.19 63.81 C187.99 65.84 190.77 67.23 193 72 C193.99 72.33 194.98 72.66 196 73 C196 73.66 196 74.32 196 75 C196.54 75.23 197.07 75.45 197.62 75.69 C203.16 78.74 207.03 83.05 211.06 87.81 C213.92 91.04 217.05 93.97 220.18 96.92 C222.08 99.09 222.35 100.29 223 103 C223.99 103.33 224.98 103.66 226 104 C227.54 105.81 227.54 105.81 229.06 108 C231.08 111.02 231.08 111.02 234 113 C234 113.99 234 114.98 234 116 C234.66 116 235.32 116 236 116 C236 117.32 236 118.64 236 120 C236.84 120.28 236.84 120.28 237.69 120.56 C242.49 123.55 245.22 129.2 248 134 C248.45 134.74 248.91 135.49 249.38 136.25 C251.66 140.12 253.86 144.05 256 148 C256.57 149.03 256.57 149.03 257.15 150.09 C258 152 258 152 258 155 C258.62 155.23 259.23 155.46 259.87 155.7 C262.65 157.4 263.02 158.83 264.06 161.88 C265.3 165.44 266.67 168.03 269 171 C269.37 172.32 269.69 173.66 270 175 C270.74 176.67 270.74 176.67 271.5 178.38 C273 182 273 182 273.5 185.25 C274.06 188.34 274.76 188.95 277 191 C277.56 192.81 277.56 192.81 278 195 C278.9 197.83 279.83 200.61 281 203.34 C282.37 206.99 282.85 210.64 283.44 214.48 C283.89 217.23 283.89 217.23 286 220 C286 222.31 286 224.62 286 227 C99.22 227 -87.56 227 -280 227 C-280 223 -280 223 -278 221 C-277.62 219.09 -277.62 219.09 -277.5 217 C-277.22 213.22 -277.22 213.22 -275 211 C-274.62 209.09 -274.62 209.09 -274.5 207 C-274.22 203.22 -274.22 203.22 -272 201 C-271.84 199.85 -271.67 198.69 -271.5 197.5 C-271 194 -271 194 -269 192 C-268.33 190.03 -268.33 190.03 -267.88 187.88 C-267.59 186.6 -267.3 185.32 -267 184 C-266.34 184 -265.68 184 -265 184 C-264.88 182.72 -264.75 181.44 -264.62 180.12 C-264.25 176.25 -264.25 176.25 -262 174 C-261.35 171.43 -261.35 171.43 -261 169 C-260.34 169 -259.68 169 -259 169 C-258.5 166.03 -258.5 166.03 -258 163 C-257.34 163 -256.68 163 -256 163 C-255.5 160.03 -255.5 160.03 -255 157 C-254.01 157 -253.02 157 -252 157 C-252 154.69 -252 152.38 -252 150 C-251.34 150.33 -250.68 150.66 -250 151 C-249.71 150.03 -249.42 149.06 -249.12 148.06 C-248 145 -248 145 -246 144 C-245.67 143.01 -245.34 142.02 -245 141 C-244.34 141 -243.68 141 -243 141 C-243.33 140.01 -243.66 139.02 -244 138 C-243.34 138 -242.68 138 -242 138 C-242 137.01 -242 136.02 -242 135 C-241.34 134.34 -240.68 133.68 -240 133 C-239.3 131.68 -238.63 130.35 -238 129 C-237.34 129 -236.68 129 -236 129 C-236 128.01 -236 127.02 -236 126 C-235.01 126 -234.02 126 -233 126 C-233 124.35 -233 122.7 -233 121 C-232.01 120.67 -231.02 120.34 -230 120 C-229.5 118.51 -229.5 118.51 -229 117 C-228.17 116.2 -227.35 115.39 -226.5 114.56 C-224.16 112.16 -223.36 111.23 -223 108 C-222.34 108 -221.68 108 -221 108 C-220.73 107.4 -220.46 106.8 -220.19 106.19 C-219 104 -217.9 102.59 -216 101 C-215.34 101 -214.68 101 -214 101 C-214 99.35 -214 97.7 -214 96 C-213.67 96.66 -213.34 97.32 -213 98 C-212.34 98 -211.68 98 -211 98 C-210.75 97.42 -210.5 96.85 -210.24 96.26 C-208.82 93.68 -207.18 91.96 -205.09 89.89 C-203.95 88.76 -203.95 88.76 -202.78 87.61 C-201.99 86.83 -201.19 86.05 -200.38 85.25 C-199.57 84.46 -198.77 83.66 -197.95 82.85 C-195.97 80.89 -193.99 78.94 -192 77 C-192.33 76.34 -192.66 75.68 -193 75 C-192.32 74.81 -191.64 74.63 -190.94 74.44 C-187.43 72.72 -185.36 70.51 -182.75 67.66 C-180.92 65.93 -179.27 65.03 -177 64 C-174.53 62.33 -172.6 60.59 -170.5 58.44 C-167.21 55.23 -164.44 53.95 -160 53 C-160 52.34 -160 51.68 -160 51 C-158.35 50.34 -156.7 49.68 -155 49 C-155 48.34 -155 47.68 -155 47 C-150 45 -150 45 -145 43 C-145 42.34 -145 41.68 -145 41 C-144.01 40.67 -143.02 40.34 -142 40 C-141.67 39.34 -141.34 38.68 -141 38 C-139.33 37.67 -137.67 37.33 -136 37 C-135.67 36.34 -135.34 35.68 -135 35 C-133.15 34.37 -133.15 34.37 -130.94 33.88 C-130.2 33.71 -129.47 33.54 -128.71 33.37 C-128.15 33.25 -127.58 33.12 -127 33 C-127 32.34 -127 31.68 -127 31 C-124.03 30.5 -124.03 30.5 -121 30 C-121 29.34 -121 28.68 -121 28 C-119.35 28 -117.7 28 -116 28 C-116 27.34 -116 26.68 -116 26 C-115.4 25.81 -114.79 25.61 -114.17 25.41 C-113.37 25.15 -112.57 24.89 -111.75 24.62 C-110.96 24.37 -110.17 24.11 -109.36 23.85 C-107 23.07 -107 23.07 -104.95 21.9 C-103 21 -103 21 -99 21 C-99 20.34 -99 19.68 -99 19 C-97.08 18.54 -95.16 18.09 -93.24 17.63 C-90.96 17.04 -90.96 17.04 -88.74 16.05 C-84.51 14.43 -80.12 13.52 -75.71 12.5 C-72.32 11.69 -69.93 10.95 -67 9 C-64.2 8.63 -61.42 8.5 -58.59 8.34 C-55.77 8.16 -55.77 8.16 -53 6 C-50.9 5.75 -48.8 5.6 -46.69 5.5 C-43.31 5.34 -40.53 5.2 -37.35 4.01 C-32.2 2.46 -27.04 2.53 -21.69 2.38 C-20.05 2.32 -20.05 2.32 -18.38 2.26 C-12.25 2.05 -6.13 1.96 0 2 C0 1.34 0 0.68 0 0 Z " fill="#F9BF1B" transform="translate(924,826)"/>
<path d="M0 0 C16.5 0 33 0 50 0 C50 0.66 50 1.32 50 2 C50.65 1.97 51.3 1.93 51.98 1.89 C57.6 1.72 61.04 2.13 66 5 C68.33 5.68 70.66 6.35 73 7 C80.03 9.25 86.32 12.09 92.69 15.83 C95.01 17.23 95.01 17.23 98 17 C98 17.66 98 18.32 98 19 C98.68 19.25 99.36 19.5 100.06 19.75 C106.2 22.36 110.42 25.18 115 30 C118.5 33.6 118.5 33.6 123 35 C123.4 35.96 123.4 35.96 123.81 36.94 C124.89 39.33 124.89 39.33 128 40 C128.33 40.99 128.66 41.98 129 43 C129.66 43 130.32 43 131 43 C132.02 44.65 133.02 46.32 134 48 C135.32 49.57 136.67 51.11 138.06 52.62 C144 59.1 144 59.1 144 63 C144.61 63.24 145.23 63.49 145.86 63.74 C148.46 65.27 149.01 66.41 150.22 69.14 C150.78 70.38 150.78 70.38 151.36 71.64 C151.73 72.5 152.11 73.36 152.5 74.25 C155.48 80.97 155.48 80.97 159.21 87.29 C161.02 90.04 161.65 91.85 162.12 95.06 C162.73 98.64 163.59 101.65 165 105 C165.37 106.41 165.72 107.83 166.06 109.25 C166.6 112.77 166.6 112.77 168 114 C169.01 120.21 169.15 126.28 169.13 132.56 C169.13 134.05 169.13 134.05 169.14 135.56 C169.14 137.65 169.13 139.73 169.13 141.82 C169.13 144.99 169.13 148.16 169.14 151.34 C169.14 153.37 169.13 155.4 169.13 157.44 C169.13 158.38 169.14 159.32 169.14 160.29 C169.12 165.61 168.78 170.73 168 176 C167.34 176 166.68 176 166 176 C165.95 176.6 165.9 177.21 165.85 177.83 C165.78 178.63 165.7 179.43 165.62 180.25 C165.56 181.04 165.49 181.83 165.41 182.64 C164.98 185.1 164.16 186.81 163 189 C162.84 189.87 162.67 190.73 162.5 191.62 C162 194 162 194 160 196 C160.06 197.36 160.06 197.36 160.12 198.75 C159.96 202.95 158.35 204.54 156 208 C154.19 211.39 152.56 214.87 150.91 218.34 C150.58 219.03 150.25 219.71 149.9 220.42 C149.61 221.03 149.31 221.65 149.01 222.29 C147.9 224.18 146.55 225.46 145 227 C144.55 227.95 144.09 228.9 143.62 229.88 C141.83 233.33 139.81 235.32 137 238 C134.27 241.04 131.63 244.12 129.25 247.44 C128.84 247.95 128.42 248.47 128 249 C127.34 249 126.68 249 126 249 C125.67 249.66 125.34 250.32 125 251 C123.93 252.03 122.82 253.03 121.69 254 C121.09 254.52 120.5 255.03 119.89 255.56 C118 257 116.15 258.01 114 259 C114 259.66 114 260.32 114 261 C107.09 266.75 99.32 270.76 91 274 C88.83 274.99 87.11 275.91 85.28 277.44 C82.49 279.35 79.87 280.13 76.62 281.06 C72.39 282.3 68.19 283.59 64 285 C61.67 285.67 59.33 286.34 57 287 C56.01 287.33 55.02 287.66 54 288 C52.31 288.14 50.62 288.22 48.93 288.28 C47.95 288.32 46.97 288.36 45.96 288.39 C43.9 288.47 41.83 288.54 39.76 288.61 C38.79 288.64 37.81 288.68 36.8 288.72 C35.91 288.75 35.01 288.78 34.09 288.81 C32.01 288.77 32.01 288.77 31 290 C29 290.1 27 290.13 25 290.12 C23.91 290.13 22.81 290.13 21.69 290.13 C19 290 19 290 18 289 C16.5 288.87 14.99 288.8 13.48 288.75 C12.56 288.72 11.64 288.69 10.69 288.65 C8.75 288.59 6.8 288.54 4.86 288.48 C0.14 288.31 -3.7 288.12 -8 286 C-9.41 285.62 -10.83 285.26 -12.25 284.94 C-16 284 -16 284 -17 283 C-19.8 282.46 -22.61 282.04 -25.43 281.6 C-28 281 -28 281 -30 279 C-32.57 278.35 -32.57 278.35 -35 278 C-35 277.34 -35 276.68 -35 276 C-35.72 275.9 -36.44 275.79 -37.19 275.69 C-40.29 274.93 -42.28 273.67 -45 272 C-46.71 271.1 -48.41 270.2 -50.12 269.31 C-56.09 266.07 -61.84 262.43 -67 258 C-67 257.34 -67 256.68 -67 256 C-67.59 255.74 -68.18 255.48 -68.79 255.21 C-71.12 253.94 -72.6 252.6 -74.44 250.69 C-75.33 249.76 -75.33 249.76 -76.25 248.81 C-76.83 248.21 -77.4 247.62 -78 247 C-78.98 246.06 -79.96 245.12 -80.94 244.19 C-83 242 -83 242 -83 240 C-83.99 239.67 -84.98 239.34 -86 239 C-88.04 236.82 -88.04 236.82 -90.19 234.12 C-90.9 233.24 -91.62 232.36 -92.36 231.45 C-94 229 -94 229 -94 226 C-94.99 225.67 -95.98 225.34 -97 225 C-98.08 223.04 -99.06 221.03 -100 219 C-100.97 217.18 -101.95 215.37 -102.94 213.56 C-103.46 212.61 -103.98 211.65 -104.51 210.67 C-105.71 208.53 -106.96 206.45 -108.25 204.38 C-110.03 200.95 -110.78 198.08 -111.5 194.33 C-112.53 189.5 -114.33 184.87 -115.99 180.23 C-119.83 167.92 -120.3 155.17 -120.31 142.38 C-120.32 141.09 -120.32 139.81 -120.33 138.5 C-120.28 132.41 -120 126.78 -118.47 120.88 C-117.6 117.37 -117.54 113.78 -117.34 110.19 C-117.23 109.47 -117.12 108.74 -117 108 C-116.01 107.5 -116.01 107.5 -115 107 C-114.53 105.1 -114.53 105.1 -114.38 102.94 C-114.25 101.64 -114.13 100.34 -114 99 C-113.34 99 -112.68 99 -112 99 C-111.95 98.29 -111.9 97.58 -111.85 96.85 C-111.78 95.93 -111.7 95.01 -111.62 94.06 C-111.56 93.15 -111.49 92.23 -111.41 91.29 C-111.21 90.15 -111.21 90.15 -111 89 C-110.01 88.5 -110.01 88.5 -109 88 C-108.27 86.02 -107.6 84.02 -107 82 C-106.34 82 -105.68 82 -105 82 C-104.92 80.93 -104.83 79.86 -104.75 78.75 C-103.91 74.53 -102.97 73.88 -100 71 C-99.69 69.87 -99.38 68.73 -99.06 67.56 C-97.83 63.43 -96.16 61.85 -93 59 C-92.34 58.01 -91.68 57.02 -91 56 C-89.5 54.31 -89.5 54.31 -88 53 C-87.34 53 -86.68 53 -86 53 C-85.92 52.28 -85.84 51.56 -85.76 50.81 C-83.69 43.13 -75.49 37.12 -69 33 C-68.13 32.53 -67.27 32.05 -66.38 31.56 C-63.76 30.01 -63.76 30.01 -61.5 27 C-59.09 24.11 -57.3 22.69 -54 21 C-53.24 20.61 -52.47 20.22 -51.69 19.81 C-51.13 19.54 -50.57 19.28 -50 19 C-50 18.67 -50 18.34 -50 18 C-48.02 18 -46.04 18 -44 18 C-44 17.01 -44 16.02 -44 15 C-41.52 14.5 -41.52 14.5 -39 14 C-39 13.34 -39 12.68 -39 12 C-38.03 11.73 -37.06 11.46 -36.06 11.19 C-32.52 10.18 -29.04 9.04 -25.55 7.86 C-23.63 7.21 -21.71 6.58 -19.79 5.95 C-18.71 5.6 -17.62 5.24 -16.5 4.88 C-14.97 4.38 -14.97 4.38 -13.41 3.87 C-11.08 3.22 -11.08 3.22 -10 2 C-8.31 1.93 -6.62 1.92 -4.94 1.94 C-4.02 1.95 -3.1 1.96 -2.15 1.96 C-1.44 1.98 -0.73 1.99 0 2 C0 1.34 0 0.68 0 0 Z M159 90 C160 93 160 93 160 93 Z " fill="#F9BF1B" transform="translate(585,0)"/>
<path d="M0 0 C0.66 0.33 1.32 0.66 2 1 C1.67 11.23 1.34 21.46 1 32 C0.34 31.67 -0.32 31.34 -1 31 C-1.02 26.75 -1.04 22.49 -1.05 18.24 C-1.06 16.79 -1.07 15.34 -1.08 13.89 C-1.09 11.82 -1.09 9.74 -1.1 7.66 C-1.1 6.41 -1.11 5.16 -1.11 3.87 C-1 1 -1 1 0 0 Z " fill="#039C43" transform="translate(1162,341)"/>
<path d="M0 0 C0.33 0 0.66 0 1 0 C1.7 10.35 2.15 20.62 2 31 C1.34 30.67 0.68 30.34 0 30 C0 20.1 0 10.2 0 0 Z " fill="#000100" transform="translate(1166,277)"/>
<path d="M0 0 C0.33 0 0.66 0 1 0 C1.19 21.53 1.19 21.53 0 32 C-0.33 32 -0.66 32 -1 32 C-1.03 28.54 -1.05 25.08 -1.06 21.62 C-1.07 20.66 -1.08 19.69 -1.09 18.7 C-1.11 12.4 -0.76 6.25 0 0 Z " fill="#000100" transform="translate(1167,334)"/>
<path d="M0 0 C0.33 0 0.66 0 1 0 C1 5.28 1 10.56 1 16 C0.34 16 -0.32 16 -1 16 C-1.03 14.27 -1.05 12.54 -1.06 10.81 C-1.07 9.85 -1.09 8.89 -1.1 7.89 C-1 5.14 -0.62 2.68 0 0 Z " fill="#000100" transform="translate(560,596)"/>
<path d="M0 0 C1.1 3.31 0.93 5.25 0.56 8.69 C0.46 9.68 0.36 10.68 0.25 11.7 C0.17 12.46 0.09 13.22 0 14 C-0.33 14 -0.66 14 -1 14 C-1.03 11.85 -1.05 9.71 -1.06 7.56 C-1.07 6.37 -1.09 5.17 -1.1 3.94 C-1 1 -1 1 0 0 Z " fill="#000100" transform="translate(1164,374)"/>
<path d="M0 0 C0.33 0 0.66 0 1 0 C1 5.28 1 10.56 1 16 C0.67 16 0.34 16 0 16 C0 10.72 0 5.44 0 0 Z " fill="#000100" transform="translate(755,137)"/>
<path d="M0 0 C0.33 0 0.66 0 1 0 C1.33 3.96 1.66 7.92 2 12 C1.34 12 0.68 12 0 12 C0 8.04 0 4.08 0 0 Z " fill="#000100" transform="translate(556,559)"/>
<path d="M0 0 C4.29 0 8.58 0 13 0 C13 0.33 13 0.66 13 1 C8.71 1 4.42 1 0 1 C0 0.67 0 0.34 0 0 Z " fill="#000100" transform="translate(617,289)"/>
<path d="M0 0 C3.96 0 7.92 0 12 0 C12 0.33 12 0.66 12 1 C8.04 1 4.08 1 0 1 C0 0.67 0 0.34 0 0 Z " fill="#000100" transform="translate(591,289)"/>
<path d="M0 0 C0.33 0 0.66 0 1 0 C1 3.3 1 6.6 1 10 C0.67 10 0.34 10 0 10 C0 6.7 0 3.4 0 0 Z " fill="#000100" transform="translate(553,539)"/>
<path d="M0 0 C0.33 0 0.66 0 1 0 C1 2.97 1 5.94 1 9 C0.67 9 0.34 9 0 9 C0 6.03 0 3.06 0 0 Z " fill="#000100" transform="translate(1163,257)"/>
<path d="M0 0 C0.33 0 0.66 0 1 0 C1 2.64 1 5.28 1 8 C0.67 8 0.34 8 0 8 C0 5.36 0 2.72 0 0 Z " fill="#000100" transform="translate(1160,239)"/>
<path d="M0 0 C0.66 0.33 1.32 0.66 2 1 C0.68 1.99 -0.64 2.98 -2 4 C-1.34 2.68 -0.68 1.36 0 0 Z " fill="#FAC01C" transform="translate(717,915)"/>
<path d="M0 0 C0.33 0 0.66 0 1 0 C1 2.31 1 4.62 1 7 C0.67 7 0.34 7 0 7 C0 4.69 0 2.38 0 0 Z " fill="#000100" transform="translate(559,580)"/>
<path d="M0 0 C1.65 0 3.3 0 5 0 C5 0.33 5 0.66 5 1 C3.35 1 1.7 1 0 1 C0 0.67 0 0.34 0 0 Z " fill="#000100" transform="translate(424,1046)"/>
<path d="M0 0 C1.65 0 3.3 0 5 0 C5 0.33 5 0.66 5 1 C3.35 1 1.7 1 0 1 C0 0.67 0 0.34 0 0 Z " fill="#000100" transform="translate(412,1043)"/>
<path d="M0 0 C0.33 0 0.66 0 1 0 C1 1.65 1 3.3 1 5 C0.67 5 0.34 5 0 5 C0 3.35 0 1.7 0 0 Z " fill="#000100" transform="translate(550,522)"/>
<path d="M0 0 C0.33 0 0.66 0 1 0 C1 1.65 1 3.3 1 5 C0.67 5 0.34 5 0 5 C0 3.35 0 1.7 0 0 Z " fill="#000100" transform="translate(547,510)"/>
<path d="M0 0 C0.33 0 0.66 0 1 0 C1 1.65 1 3.3 1 5 C0.67 5 0.34 5 0 5 C0 3.35 0 1.7 0 0 Z " fill="#000100" transform="translate(1154,425)"/>
<path d="M0 0 C0.33 0 0.66 0 1 0 C1 1.65 1 3.3 1 5 C0.67 5 0.34 5 0 5 C0 3.35 0 1.7 0 0 Z " fill="#000100" transform="translate(1157,413)"/>
<path d="M0 0 C0.33 0 0.66 0 1 0 C1 1.65 1 3.3 1 5 C0.67 5 0.34 5 0 5 C0 3.35 0 1.7 0 0 Z " fill="#000100" transform="translate(1160,400)"/>
<path d="M0 0 C0.66 0.33 1.32 0.66 2 1 C1.01 1.66 0.02 2.32 -1 3 C-0.67 2.01 -0.34 1.02 0 0 Z " fill="#92DD1A" transform="translate(771,336)"/>
<path d="M0 0 C0.33 0 0.66 0 1 0 C1 1.65 1 3.3 1 5 C0.67 5 0.34 5 0 5 C0 3.35 0 1.7 0 0 Z " fill="#000100" transform="translate(1157,227)"/>
<path d="M0 0 C4 1 4 1 4 1 Z " fill="#000100" transform="translate(400,1040)"/>
<path d="M0 0 C1 4 1 4 1 4 Z " fill="#000100" transform="translate(1198,1010)"/>
<path d="M0 0 C1 4 1 4 1 4 Z " fill="#000100" transform="translate(1154,215)"/>
<path d="M0 0 C3 1 3 1 3 1 Z " fill="#000100" transform="translate(442,1050)"/>
<path d="M0 0 C3 1 3 1 3 1 Z " fill="#000100" transform="translate(389,1037)"/>
<path d="M0 0 C3 1 3 1 3 1 Z " fill="#000100" transform="translate(344,1021)"/>
<path d="M0 0 C3 1 3 1 3 1 Z " fill="#000100" transform="translate(335,1018)"/>
<path d="M0 0 C3 1 3 1 3 1 Z " fill="#000100" transform="translate(295,999)"/>
<path d="M0 0 C0.99 0.5 0.99 0.5 2 1 C1.01 1.5 1.01 1.5 0 2 C0 1.34 0 0.68 0 0 Z " fill="#FAC01C" transform="translate(725,907)"/>
<path d="M0 0 C0.99 0.5 0.99 0.5 2 1 C1.01 1.5 1.01 1.5 0 2 C0 1.34 0 0.68 0 0 Z " fill="#FAC01C" transform="translate(728,904)"/>
<path d="M0 0 C3 1 3 1 3 1 Z " fill="#000100" transform="translate(697,792)"/>
<path d="M0 0 C3 1 3 1 3 1 Z " fill="#000100" transform="translate(722,782)"/>
<path d="M0 0 C3 1 3 1 3 1 Z " fill="#000100" transform="translate(847,729)"/>
<path d="" fill="#92DD1A" transform="translate(0,0)"/>
<path d="" fill="#000100" transform="translate(0,0)"/>
<path d="" fill="#000100" transform="translate(0,0)"/>
<path d="" fill="#000100" transform="translate(0,0)"/>
<path d="" fill="#000100" transform="translate(0,0)"/>
<path d="" fill="#000100" transform="translate(0,0)"/>
<path d="" fill="#000100" transform="translate(0,0)"/>
<path d="M0 0 C0.99 0.5 0.99 0.5 2 1 C1.01 1.5 1.01 1.5 0 2 C0 1.34 0 0.68 0 0 Z " fill="#05CA57" transform="translate(766,341)"/>
<path d="M0 0 C0.99 0.5 0.99 0.5 2 1 C1.01 1.5 1.01 1.5 0 2 C0 1.34 0 0.68 0 0 Z " fill="#05CA57" transform="translate(774,333)"/>
<path d="M0 0 C3 1 3 1 3 1 Z " fill="#000100" transform="translate(643,286)"/>
<path d="M0 0 C3 1 3 1 3 1 Z " fill="#000100" transform="translate(565,283)"/>
<path d="" fill="#000100" transform="translate(0,0)"/>
<path d="M0 0 C2 1 2 1 2 1 Z " fill="#000100" transform="translate(371,1031)"/>
<path d="" fill="#000100" transform="translate(0,0)"/>
<path d="" fill="#FAC01C" transform="translate(0,0)"/>
<path d="" fill="#000100" transform="translate(0,0)"/>
<path d="M0 0 C2 1 2 1 2 1 Z " fill="#000100" transform="translate(289,996)"/>
<path d="M0 0 C2 1 2 1 2 1 Z " fill="#000100" transform="translate(283,993)"/>
<path d="M0 0 C2 1 2 1 2 1 Z " fill="#000100" transform="translate(737,776)"/>
<path d="M0 0 C2 1 2 1 2 1 Z " fill="#000100" transform="translate(782,757)"/>
<path d="M0 0 C2 1 2 1 2 1 Z " fill="#000100" transform="translate(803,748)"/>
<path d="M0 0 C2 1 2 1 2 1 Z " fill="#000100" transform="translate(826,738)"/>
<path d="M0 0 C2 1 2 1 2 1 Z " fill="#000100" transform="translate(841,732)"/>
<path d="M0 0 C2 1 2 1 2 1 Z " fill="#000100" transform="translate(862,723)"/>
<path d="M0 0 C2 1 2 1 2 1 Z " fill="#000100" transform="translate(885,713)"/>
<path d="M0 0 C2 1 2 1 2 1 Z " fill="#000100" transform="translate(900,707)"/>
<path d="M0 0 C2 1 2 1 2 1 Z " fill="#000100" transform="translate(935,691)"/>
<path d="M0 0 C2 1 2 1 2 1 Z " fill="#000100" transform="translate(941,688)"/>
<path d="" fill="#000100" transform="translate(0,0)"/>
<path d="" fill="#000100" transform="translate(0,0)"/>
<path d="" fill="#000100" transform="translate(0,0)"/>
<path d="" fill="#000100" transform="translate(0,0)"/>
<path d="" fill="#000100" transform="translate(0,0)"/>
<path d="" fill="#000100" transform="translate(0,0)"/>
<path d="" fill="#000100" transform="translate(0,0)"/>
<path d="" fill="#000100" transform="translate(0,0)"/>
<path d="" fill="#000100" transform="translate(0,0)"/>
<path d="" fill="#92DD1A" transform="translate(0,0)"/>
<path d="M0 0 C2 1 2 1 2 1 Z " fill="#000100" transform="translate(575,286)"/>
<path d="M0 0 C2 1 2 1 2 1 Z " fill="#000100" transform="translate(677,273)"/>
<path d="" fill="#000100" transform="translate(0,0)"/>
<path d="" fill="#000100" transform="translate(0,0)"/>
<path d="" fill="#000100" transform="translate(0,0)"/>
<path d="" fill="#000100" transform="translate(0,0)"/>
<path d="" fill="#000100" transform="translate(0,0)"/>
<path d="" fill="#000100" transform="translate(0,0)"/>
<path d="" fill="#000100" transform="translate(0,0)"/>
<path d="" fill="#FAC01C" transform="translate(0,0)"/>
<path d="" fill="#000100" transform="translate(0,0)"/>
<path d="" fill="#000100" transform="translate(0,0)"/>
<path d="" fill="#FAC01C" transform="translate(0,0)"/>
<path d="" fill="#000100" transform="translate(0,0)"/>
<path d="" fill="#000100" transform="translate(0,0)"/>
<path d="" fill="#000100" transform="translate(0,0)"/>
<path d="" fill="#000100" transform="translate(0,0)"/>
<path d="" fill="#000100" transform="translate(0,0)"/>
<path d="" fill="#000100" transform="translate(0,0)"/>
<path d="" fill="#000100" transform="translate(0,0)"/>
<path d="" fill="#FAC01C" transform="translate(0,0)"/>
<path d="" fill="#FAC01C" transform="translate(0,0)"/>
<path d="" fill="#000100" transform="translate(0,0)"/>
<path d="" fill="#000100" transform="translate(0,0)"/>
<path d="" fill="#000100" transform="translate(0,0)"/>
<path d="" fill="#FAC01C" transform="translate(0,0)"/>
<path d="" fill="#FAC01C" transform="translate(0,0)"/>
<path d="" fill="#FAC01C" transform="translate(0,0)"/>
<path d="" fill="#FAC01C" transform="translate(0,0)"/>
<path d="" fill="#FAC01C" transform="translate(0,0)"/>
<path d="" fill="#FAC01C" transform="translate(0,0)"/>
<path d="" fill="#FAC01C" transform="translate(0,0)"/>
<path d="" fill="#FAC01C" transform="translate(0,0)"/>
<path d="" fill="#FAC01C" transform="translate(0,0)"/>
<path d="" fill="#FAC01C" transform="translate(0,0)"/>
<path d="" fill="#FAC01C" transform="translate(0,0)"/>
<path d="" fill="#FAC01C" transform="translate(0,0)"/>
<path d="" fill="#FAC01C" transform="translate(0,0)"/>
<path d="" fill="#FAC01C" transform="translate(0,0)"/>
<path d="" fill="#FAC01C" transform="translate(0,0)"/>
<path d="" fill="#FAC01C" transform="translate(0,0)"/>
<path d="" fill="#FAC01C" transform="translate(0,0)"/>
<path d="" fill="#FAC01C" transform="translate(0,0)"/>
<path d="" fill="#FAC01C" transform="translate(0,0)"/>
<path d="" fill="#05CA57" transform="translate(0,0)"/>
<path d="" fill="#FAC01C" transform="translate(0,0)"/>
<path d="" fill="#FAC01C" transform="translate(0,0)"/>
<path d="" fill="#000100" transform="translate(0,0)"/>
<path d="" fill="#000100" transform="translate(0,0)"/>
<path d="" fill="#000100" transform="translate(0,0)"/>
<path d="" fill="#000100" transform="translate(0,0)"/>
<path d="" fill="#000100" transform="translate(0,0)"/>
<path d="" fill="#000100" transform="translate(0,0)"/>
<path d="" fill="#000100" transform="translate(0,0)"/>
<path d="" fill="#05CA57" transform="translate(0,0)"/>
<path d="" fill="#000100" transform="translate(0,0)"/>
<path d="" fill="#000100" transform="translate(0,0)"/>
<path d="" fill="#000100" transform="translate(0,0)"/>
<path d="" fill="#000100" transform="translate(0,0)"/>
<path d="" fill="#000100" transform="translate(0,0)"/>
<path d="" fill="#000100" transform="translate(0,0)"/>
<path d="" fill="#000100" transform="translate(0,0)"/>
<path d="" fill="#000100" transform="translate(0,0)"/>
<path d="" fill="#000100" transform="translate(0,0)"/>
<path d="" fill="#000100" transform="translate(0,0)"/>
<path d="" fill="#000100" transform="translate(0,0)"/>
<path d="" fill="#000100" transform="translate(0,0)"/>
<path d="" fill="#000100" transform="translate(0,0)"/>
<path d="" fill="#000100" transform="translate(0,0)"/>
<path d="" fill="#000100" transform="translate(0,0)"/>
<path d="" fill="#000100" transform="translate(0,0)"/>
<path d="" fill="#000100" transform="translate(0,0)"/>
<path d="" fill="#000100" transform="translate(0,0)"/>
<path d="" fill="#000100" transform="translate(0,0)"/>
<path d="" fill="#92DD1A" transform="translate(0,0)"/>
<path d="" fill="#000100" transform="translate(0,0)"/>
<path d="" fill="#92DD1A" transform="translate(0,0)"/>
<path d="" fill="#000100" transform="translate(0,0)"/>
<path d="" fill="#000100" transform="translate(0,0)"/>
<path d="" fill="#000100" transform="translate(0,0)"/>
<path d="" fill="#92DD1A" transform="translate(0,0)"/>
<path d="" fill="#000100" transform="translate(0,0)"/>
<path d="" fill="#000100" transform="translate(0,0)"/>
<path d="" fill="#000100" transform="translate(0,0)"/>
<path d="" fill="#000100" transform="translate(0,0)"/>
<path d="" fill="#000100" transform="translate(0,0)"/>
<path d="" fill="#000100" transform="translate(0,0)"/>
<path d="" fill="#92DD1A" transform="translate(0,0)"/>
<path d="" fill="#000100" transform="translate(0,0)"/>
<path d="" fill="#92DD1A" transform="translate(0,0)"/>
<path d="" fill="#000100" transform="translate(0,0)"/>
<path d="" fill="#92DD1A" transform="translate(0,0)"/>
<path d="" fill="#92DD1A" transform="translate(0,0)"/>
<path d="" fill="#92DD1A" transform="translate(0,0)"/>
<path d="" fill="#92DD1A" transform="translate(0,0)"/>
<path d="" fill="#92DD1A" transform="translate(0,0)"/>
<path d="" fill="#000100" transform="translate(0,0)"/>
<path d="" fill="#000100" transform="translate(0,0)"/>
<path d="" fill="#000100" transform="translate(0,0)"/>
<path d="" fill="#000100" transform="translate(0,0)"/>
<path d="" fill="#000100" transform="translate(0,0)"/>
<path d="" fill="#92DD1A" transform="translate(0,0)"/>
<path d="" fill="#92DD1A" transform="translate(0,0)"/>
<path d="" fill="#000100" transform="translate(0,0)"/>
<path d="" fill="#92DD1A" transform="translate(0,0)"/>
<path d="" fill="#000100" transform="translate(0,0)"/>
<path d="" fill="#000100" transform="translate(0,0)"/>
<path d="" fill="#000100" transform="translate(0,0)"/>
<path d="" fill="#92DD1A" transform="translate(0,0)"/>
<path d="" fill="#000100" transform="translate(0,0)"/>
<path d="" fill="#000100" transform="translate(0,0)"/>
<path d="" fill="#92DD1A" transform="translate(0,0)"/>
<path d="" fill="#000100" transform="translate(0,0)"/>
<path d="" fill="#000100" transform="translate(0,0)"/>
<path d="" fill="#92DD1A" transform="translate(0,0)"/>
<path d="" fill="#000100" transform="translate(0,0)"/>
<path d="" fill="#000100" transform="translate(0,0)"/>
<path d="" fill="#000100" transform="translate(0,0)"/>
<path d="" fill="#05CA57" transform="translate(0,0)"/>
<path d="" fill="#000100" transform="translate(0,0)"/>
<path d="" fill="#92DD1A" transform="translate(0,0)"/>
<path d="" fill="#000100" transform="translate(0,0)"/>
<path d="" fill="#000100" transform="translate(0,0)"/>
<path d="" fill="#000100" transform="translate(0,0)"/>
<path d="" fill="#000100" transform="translate(0,0)"/>
<path d="" fill="#FAC01C" transform="translate(0,0)"/>
<path d="" fill="#FAC01C" transform="translate(0,0)"/>
<path d="" fill="#FAC01C" transform="translate(0,0)"/>
<path d="" fill="#FAC01C" transform="translate(0,0)"/>
<path d="" fill="#FAC01C" transform="translate(0,0)"/>
<path d="" fill="#FAC01C" transform="translate(0,0)"/>
<path d="" fill="#FAC01C" transform="translate(0,0)"/>
</svg>
