<?xml version="1.0" encoding="UTF-8"?>
<!-- Generator: visioncortex VTracer 0.6.3 -->
<svg version="1.1" xmlns="http://www.w3.org/2000/svg" width="1280" height="279">
<path d="M0 0 C10.25 7.49 18.91 16.09 26.58 26.23 C27.19 27 27.79 27.78 28.41 28.58 C46.03 52.31 50.09 79.42 49.88 108.2 C49.87 110.46 49.87 112.73 49.86 114.99 C49.85 120.89 49.82 126.78 49.79 132.68 C49.76 138.72 49.75 144.76 49.73 150.8 C49.7 162.61 49.65 174.42 49.58 186.23 C47.03 186.25 44.47 186.26 41.92 186.27 C41.2 186.27 40.48 186.28 39.74 186.28 C34.25 186.3 29.08 185.84 23.71 184.67 C22.46 184.4 22.46 184.4 21.19 184.13 C2.11 179.83 -14.75 171.15 -29.42 158.23 C-30.27 157.51 -31.12 156.79 -32 156.04 C-38.24 150.66 -43.43 144.78 -48.42 138.23 C-49.33 137.04 -49.33 137.04 -50.25 135.83 C-57.48 125.97 -63.52 115.15 -66.42 103.23 C-66.75 102.26 -67.09 101.3 -67.44 100.3 C-68.9 95.16 -68.68 90 -68.64 84.69 C-68.64 83.55 -68.64 82.41 -68.64 81.23 C-68.64 77.47 -68.63 73.71 -68.61 69.95 C-68.61 67.34 -68.61 64.72 -68.6 62.11 C-68.6 55.95 -68.58 49.78 -68.56 43.61 C-68.54 36.59 -68.53 29.57 -68.52 22.55 C-68.5 8.11 -68.46 -6.33 -68.42 -20.77 C-44.43 -24.99 -19.3 -13.62 0 0 Z " fill="#00CB58" transform="translate(68.41650390625,36.771484375)"/>
<path d="M0 0 C0.72 -0.03 1.43 -0.06 2.17 -0.09 C5.73 -0.1 7.67 0.18 10.44 2.47 C14.12 9.35 14.45 16.75 14.44 24.44 C14.44 25.79 14.44 25.79 14.43 27.18 C14.26 37.4 12.63 47.73 8.45 57.12 C7.03 60.59 6.7 63.03 6.62 66.75 C5.96 77.64 2.31 85.44 -4.94 93.5 C-5.57 94.23 -6.21 94.96 -6.86 95.71 C-12.69 101.97 -19.48 106.44 -26.63 111.01 C-31.18 113.94 -35.68 116.94 -40.19 119.94 C-41.1 120.54 -42.02 121.14 -42.97 121.77 C-44.26 122.62 -44.26 122.62 -45.58 123.5 C-46.35 124 -47.12 124.51 -47.91 125.03 C-49.79 126.39 -51.35 127.81 -52.94 129.5 C-52.07 129.19 -51.19 128.87 -50.3 128.55 C-34.98 123.77 -16.4 126.8 -2.3 133.81 C6.06 138.42 12.16 144.49 15.4 153.6 C17.55 163.02 17.24 173.16 12.06 181.5 C2.75 194 -9.92 201.24 -25.18 204.1 C-42.89 206.65 -63.44 205.59 -78.7 195.29 C-86.06 189.42 -93.43 182.87 -95.94 173.5 C-96.93 164.09 -96.44 154.4 -92.94 145.5 C-92.28 145.17 -91.62 144.84 -90.94 144.5 C-90.12 143.09 -89.36 141.64 -88.62 140.19 C-86.51 136.27 -84.54 134.16 -80.94 131.5 C-79.94 130.33 -78.96 129.14 -78 127.94 C-74.67 124.04 -70.95 120.91 -66.94 117.75 C-66.36 117.29 -65.77 116.83 -65.18 116.36 C-61.27 113.35 -57.26 110.86 -52.94 108.5 C-54.48 108.08 -54.48 108.08 -56.05 107.65 C-70.81 103.46 -83.86 96.61 -91.88 82.88 C-97.43 71.73 -97.01 61.06 -93.69 49.31 C-93.48 48.57 -93.28 47.83 -93.07 47.06 C-91.46 41.83 -91.46 41.83 -88.96 40.24 C-88.29 40 -87.62 39.75 -86.94 39.5 C-85.35 37.79 -85.35 37.79 -83.88 35.81 C-75.94 26.51 -65.1 22.22 -53.38 19.75 C-39.82 18.76 -25.47 19.65 -14.49 28.46 C-8.25 33.88 -8.25 33.88 -6.94 36.5 C-8.01 25.36 -8.01 25.36 -10.06 14.38 C-12.09 5.38 -12.09 5.38 -9.91 1.84 C-6.82 -0.25 -3.6 -0.01 0 0 Z M-62.44 47.75 C-68 53.86 -70.23 59.23 -69.94 67.5 C-68.84 74.48 -65.42 80.07 -59.94 84.5 C-52.2 88.76 -43.76 90.05 -35.2 87.77 C-27.45 84.96 -23.15 80.57 -18.94 73.5 C-16.82 66.6 -17.36 60.04 -20.54 53.58 C-23.99 48.47 -29.2 45.47 -34.94 43.5 C-44.07 41.74 -54.71 41.89 -62.44 47.75 Z M-68.94 153.5 C-71.33 156.9 -72.19 159.42 -71.88 163.5 C-70.9 168.95 -68.35 172.36 -64.06 175.81 C-60.9 177.52 -58.46 178.01 -54.94 178.5 C-54.61 179.16 -54.28 179.82 -53.94 180.5 C-50 180.62 -46.06 180.69 -42.12 180.75 C-41.02 180.78 -39.92 180.82 -38.79 180.85 C-29.84 180.96 -21.37 179.68 -14.31 173.75 C-11.85 170.91 -10.95 168.33 -10.78 164.58 C-11.13 160 -12.12 156.25 -15.5 152.99 C-28.71 143.8 -56.53 142.07 -68.94 153.5 Z M-43.94 181.5 C-43.94 181.83 -43.94 182.16 -43.94 182.5 C-41.3 182.5 -38.66 182.5 -35.94 182.5 C-35.94 182.17 -35.94 181.84 -35.94 181.5 C-38.58 181.5 -41.22 181.5 -43.94 181.5 Z " fill="#131516" transform="translate(594.9375,74.5)"/>
<path d="M0 0 C4.16 3.9 5.76 8.47 6.29 14.09 C6.34 17.69 6.38 21.28 6.38 24.88 C6.37 26.17 6.37 27.47 6.37 28.81 C6.25 39.26 5.21 48.78 0.92 58.42 C-0.29 61.81 -0.55 65.19 -0.88 68.75 C-2.53 83.63 -9.98 93.24 -21.38 102.72 C-25.99 106.36 -30.96 109.5 -35.91 112.66 C-38.17 114.11 -40.4 115.59 -42.63 117.07 C-44.17 118.09 -45.71 119.11 -47.25 120.12 C-47.98 120.61 -48.7 121.1 -49.45 121.6 C-50.47 122.26 -50.47 122.26 -51.52 122.95 C-52.12 123.34 -52.72 123.74 -53.34 124.15 C-55 125 -55 125 -58 125 C-58.33 126.65 -58.66 128.3 -59 130 C-58.29 129.69 -57.58 129.37 -56.86 129.05 C-44.46 124.5 -26.5 126.79 -14.45 131.81 C-4.01 136.87 4.31 142.78 8.34 154.1 C10.5 163.59 10.08 173.56 5 182 C2.88 184.92 0.57 187.47 -2 190 C-2.51 190.53 -3.02 191.07 -3.55 191.62 C-16.22 203.75 -34.01 205.5 -50.61 205.42 C-66.67 205.06 -81.26 201.04 -93.28 189.85 C-100.77 181.79 -102.43 173.3 -102.25 162.5 C-101.9 157.62 -100.83 153.51 -99 149 C-98.71 148.23 -98.41 147.45 -98.11 146.66 C-91.01 130.34 -75.3 117.34 -60 109 C-61.39 108.63 -61.39 108.63 -62.81 108.25 C-64.21 107.84 -65.61 107.42 -67 107 C-67.85 106.74 -68.69 106.49 -69.56 106.22 C-82.34 101.99 -93.22 93.87 -99.44 81.81 C-104.28 71.75 -103.99 61.56 -101.04 50.92 C-96.27 37.49 -86.48 29.2 -74 23 C-60.96 17.56 -45.24 16.86 -32 22 C-25 25.6 -19.23 30.13 -14 36 C-14.16 35.18 -14.16 35.18 -14.33 34.34 C-14.67 32.63 -15.02 30.91 -15.36 29.2 C-15.83 26.87 -16.31 24.54 -16.8 22.21 C-16.94 21.55 -17.07 20.9 -17.21 20.22 C-17.61 18.32 -18.01 16.42 -18.41 14.52 C-19.77 6.37 -19.77 6.37 -17.38 2.12 C-12.08 -1.21 -6.08 -1.23 0 0 Z M-16 19 C-15 21 -15 21 -15 21 Z M-71 50 C-75.42 54.88 -76.71 60.54 -77 67 C-76.13 73.9 -73.34 79.51 -68 84 C-60.06 89.02 -51.78 90.26 -42.53 88.54 C-36.19 86.69 -31.34 83.55 -27.68 78 C-24.38 71.54 -23.69 64.74 -25.62 57.73 C-28.3 51.47 -33.33 47.71 -39.39 44.88 C-50.4 41.15 -61.97 42.67 -71 50 Z M-61 129 C-61.33 129.66 -61.66 130.32 -62 131 C-61.34 131 -60.68 131 -60 131 C-60.33 130.34 -60.66 129.68 -61 129 Z M-75.19 153.5 C-78.26 157.73 -78.64 161.91 -78 167 C-75.41 173.54 -71.17 176.78 -65 180 C-54.12 184.34 -39.26 184.42 -28.4 179.93 C-24.03 177.67 -20.4 175.4 -18 171 C-16.81 166.52 -16.63 163.1 -18.12 158.69 C-22.42 152.54 -28.21 150.08 -35.32 148.47 C-46.63 146.47 -66.23 145.21 -75.19 153.5 Z " fill="#131516" transform="translate(1132,74)"/>
<path d="M0 0 C0.78 -0.05 1.56 -0.11 2.37 -0.16 C7.1 -0.27 9.95 0.45 13.68 3.43 C17.77 7.46 19.84 11.82 21.88 17.12 C22.24 18.03 22.61 18.93 22.98 19.86 C24.14 22.73 25.26 25.61 26.38 28.5 C27.17 30.49 27.96 32.48 28.76 34.47 C29.51 36.38 30.25 38.28 31 40.19 C31.36 41.09 31.71 41.99 32.08 42.92 C32.39 43.76 32.71 44.59 33.04 45.45 C33.32 46.18 33.61 46.92 33.9 47.68 C34.38 49.5 34.38 49.5 33.38 51.5 C34.03 51.5 34.69 51.5 35.38 51.5 C40.87 65.06 46.34 78.63 51.8 92.21 C54.34 98.51 56.88 104.81 59.43 111.11 C61.89 117.19 64.34 123.27 66.78 129.36 C67.72 131.68 68.65 134 69.6 136.31 C70.92 139.56 72.22 142.81 73.52 146.07 C73.91 147.02 74.3 147.98 74.71 148.97 C76.73 154.07 77.84 158.01 77.38 163.5 C73.37 166.22 69.09 165.83 64.44 165.81 C63.64 165.83 62.84 165.84 62.02 165.86 C57.34 165.87 54.09 165.64 50.38 162.5 C46.98 158.06 45.36 152.51 43.44 147.31 C42.76 145.51 42.09 143.7 41.41 141.89 C41.12 141.1 40.82 140.3 40.52 139.48 C38.85 135.14 37.11 130.82 35.38 126.5 C34.53 126.5 33.68 126.5 32.81 126.51 C24.83 126.53 16.86 126.54 8.88 126.55 C4.78 126.56 0.68 126.56 -3.42 126.58 C-7.38 126.59 -11.33 126.59 -15.29 126.59 C-16.8 126.6 -18.31 126.6 -19.82 126.61 C-21.93 126.61 -24.04 126.61 -26.16 126.61 C-27.36 126.62 -28.56 126.62 -29.8 126.62 C-32.62 126.5 -32.62 126.5 -34.62 125.5 C-34.3 126.49 -33.97 127.48 -33.62 128.5 C-34.33 131.11 -35.11 133.58 -36.01 136.12 C-36.27 136.87 -36.53 137.61 -36.79 138.38 C-37.34 139.95 -37.9 141.52 -38.46 143.09 C-39.31 145.49 -40.13 147.89 -40.96 150.3 C-41.5 151.82 -42.03 153.35 -42.57 154.88 C-42.82 155.59 -43.06 156.31 -43.32 157.05 C-44.73 160.96 -45.83 163.59 -49.62 165.5 C-52.75 166.1 -55.89 165.96 -59.06 165.94 C-59.91 165.96 -60.76 165.98 -61.63 166 C-65.91 165.99 -68.06 165.87 -71.72 163.47 C-72.66 162.5 -72.66 162.5 -73.62 161.5 C-72.33 152.59 -69.19 144.43 -66 136.06 C-65.43 134.54 -64.85 133.01 -64.28 131.49 C-63.05 128.22 -61.81 124.95 -60.58 121.68 C-58.56 116.35 -56.58 111.01 -54.59 105.66 C-54.26 104.75 -53.92 103.84 -53.57 102.91 C-52.89 101.07 -52.21 99.23 -51.53 97.39 C-46.2 83.04 -40.83 68.72 -35.37 54.42 C-32.03 45.64 -28.82 36.82 -25.7 27.96 C-23.92 22.95 -22.07 17.96 -20.1 13.02 C-19.71 12.05 -19.33 11.08 -18.93 10.08 C-14.84 2 -8.47 0.24 0 0 Z M0.38 32.5 C-0.46 34.43 -1.3 36.37 -2.12 38.31 C-2.82 39.93 -2.82 39.93 -3.53 41.58 C-4.8 44.45 -4.8 44.45 -4.62 47.5 C-5.28 47.5 -5.94 47.5 -6.62 47.5 C-6.76 48.22 -6.89 48.94 -7.02 49.69 C-7.6 52.39 -8.37 54.87 -9.3 57.47 C-9.81 58.91 -9.81 58.91 -10.33 60.38 C-10.7 61.41 -11.06 62.43 -11.44 63.49 C-11.82 64.55 -12.19 65.6 -12.58 66.7 C-13.78 70.07 -14.98 73.44 -16.19 76.81 C-17 79.1 -17.82 81.39 -18.63 83.68 C-20.63 89.29 -22.62 94.9 -24.62 100.5 C-22.85 102.7 -22.85 102.7 -20.56 102.7 C-19.29 102.67 -19.29 102.67 -17.99 102.64 C-17.03 102.62 -16.07 102.59 -15.08 102.57 C-14.04 102.54 -13 102.51 -11.93 102.48 C-10.87 102.45 -9.8 102.43 -8.71 102.4 C-5.31 102.32 -1.9 102.22 1.5 102.12 C3.8 102.07 6.11 102.01 8.41 101.95 C14.07 101.81 19.72 101.66 25.38 101.5 C25.38 99.52 25.38 97.54 25.38 95.5 C24.72 95.5 24.06 95.5 23.38 95.5 C23.26 94.66 23.15 93.81 23.03 92.94 C22.32 89.23 21.2 85.96 19.87 82.42 C19.63 81.77 19.39 81.12 19.14 80.44 C18.37 78.38 17.59 76.31 16.81 74.25 C16.03 72.17 15.25 70.09 14.48 68.01 C13.78 66.14 13.07 64.26 12.37 62.39 C11.38 59.5 11.38 59.5 11.38 57.5 C10.72 57.5 10.06 57.5 9.38 57.5 C9.17 56.34 8.96 55.19 8.75 54 C7.13 46.58 4.13 39.56 1.38 32.5 C1.05 32.5 0.72 32.5 0.38 32.5 Z " fill="#141617" transform="translate(403.625,52.5)"/>
<path d="M0 0 C10.46 16.48 9.21 39.08 5.25 57.47 C1.42 71.23 -5.33 83.52 -15 94 C-15.61 94.7 -16.22 95.41 -16.86 96.13 C-32.2 112.81 -56.98 120.4 -77.27 128.85 C-79.54 129.81 -81.78 130.8 -84.03 131.81 C-87.52 133.21 -90.28 133.23 -94 133 C-100.36 119.11 -100.36 119.11 -100 113 C-100.33 113 -100.66 113 -101 113 C-103.98 90.29 -99.56 66.4 -85.66 47.71 C-80.81 41.72 -75.49 36.27 -69.81 31.06 C-68.8 30.12 -68.8 30.12 -67.77 29.16 C-59.55 22.75 -50.22 18.71 -40.69 14.69 C-39.36 14.12 -38.04 13.56 -36.71 12.99 C-34.71 12.14 -32.72 11.29 -30.72 10.44 C-26.63 8.71 -22.57 6.93 -18.51 5.12 C-17.55 4.7 -16.59 4.27 -15.6 3.83 C-13.83 3.05 -12.06 2.25 -10.3 1.45 C-9.51 1.11 -8.73 0.77 -7.93 0.41 C-6.93 -0.04 -6.93 -0.04 -5.91 -0.49 C-3.52 -1.13 -2.27 -0.96 0 0 Z M-100 83 C-99 86 -99 86 -99 86 Z M-101 93 C-101 94.65 -101 96.3 -101 98 C-100.67 98 -100.34 98 -100 98 C-100 96.35 -100 94.7 -100 93 C-100.33 93 -100.66 93 -101 93 Z M-101 101 C-100 104 -100 104 -100 104 Z " fill="#91DC1A" transform="translate(239,33)"/>
<path d="M0 0 C9.51 8.21 16.35 16.97 20.31 28.96 C20.7 30.13 20.7 30.13 21.1 31.33 C23.33 38.62 23.77 45.37 23.69 52.96 C23.7 54.06 23.71 55.16 23.72 56.29 C23.7 63.61 22.61 70.01 20.31 76.96 C19.65 76.96 18.99 76.96 18.31 76.96 C18.64 77.95 18.97 78.94 19.31 79.96 C13.24 94.3 3.1 104.81 -10.69 111.96 C-26.8 118.36 -46.07 119.05 -62.25 112.59 C-77.76 105.44 -89.89 92.58 -95.93 76.57 C-101.56 57.11 -99.99 37.07 -90.52 19.14 C-84.61 8.88 -84.61 8.88 -80.57 6.95 C-78.33 6.05 -78.33 6.05 -77.69 2.96 C-55.93 -14.26 -22.67 -17.2 0 0 Z M-51.69 15.96 C-52.41 16.35 -53.14 16.74 -53.89 17.14 C-63.16 22.55 -67.16 31.19 -69.99 41.27 C-72.64 55.31 -71.27 69.4 -63.31 81.52 C-58.42 87.92 -52.55 91.4 -44.69 92.96 C-33.77 93.77 -24.98 92.91 -15.69 86.96 C-13.52 84.93 -13.52 84.93 -11.69 81.96 C-11.69 80.64 -11.69 79.32 -11.69 77.96 C-10.7 77.63 -9.71 77.3 -8.69 76.96 C-5.05 69.85 -5.23 61.74 -5.31 53.96 C-5.3 52.85 -5.29 51.74 -5.28 50.59 C-5.32 38.74 -8.24 28.45 -16.09 19.33 C-23.19 12.74 -32.02 12.46 -41.23 12.68 C-45.64 13.04 -47.9 13.69 -51.69 15.96 Z M-4.69 46.96 C-4.69 51.25 -4.69 55.54 -4.69 59.96 C-4.36 59.96 -4.03 59.96 -3.69 59.96 C-3.69 55.67 -3.69 51.38 -3.69 46.96 C-4.02 46.96 -4.35 46.96 -4.69 46.96 Z " fill="#131516" transform="translate(1256.6875,104.0390625)"/>
<path d="M0 0 C12.9 11.48 19.5 24.29 21.42 41.67 C21.58 44.9 21.61 48.12 21.61 51.36 C21.61 52.23 21.61 53.11 21.61 54.01 C21.56 60.71 20.91 67.13 19.42 73.67 C18.76 73.67 18.1 73.67 17.42 73.67 C17.48 74.54 17.54 75.41 17.61 76.31 C17.1 85.44 8.96 94.68 2.42 100.67 C-12.63 112.59 -27.6 116.93 -46.95 115.13 C-66.18 112.67 -78.55 103.86 -90.63 89.18 C-93.85 84.68 -95.59 80.23 -96.99 74.88 C-97.56 72.55 -97.56 72.55 -98.7 69.98 C-104.1 55.71 -101.02 36.65 -95.04 23.2 C-86.73 6.91 -76.11 -2.1 -59.58 -9.33 C-39.76 -15.54 -16.32 -13.75 0 0 Z M-63.27 22.6 C-71.95 34.44 -72.96 48.5 -71.58 62.67 C-69.65 73.44 -64.97 81.62 -56.4 88.42 C-48.56 93.82 -39.71 93.37 -30.58 92.67 C-22.61 91.02 -16.61 86.48 -11.97 79.95 C-4.33 67.37 -3.57 51.28 -6.7 37.11 C-9.63 27.41 -14.64 19.72 -23.58 14.67 C-37.72 8.96 -52.95 10.78 -63.27 22.6 Z M-99.58 41.67 C-98.58 44.67 -98.58 44.67 -98.58 44.67 Z " fill="#131516" transform="translate(819.5791015625,105.33056640625)"/>
<path d="M0 0 C2.06 1.69 2.06 1.69 2.77 3.75 C3.17 7.78 2.53 11.4 1.81 15.38 C1.69 16.15 1.57 16.92 1.44 17.71 C1.09 19.73 0.58 21.71 0.06 23.69 C-3.38 25.98 -4.11 25.84 -8.06 25.38 C-9.04 25.27 -10.01 25.17 -11.02 25.06 C-12.83 24.83 -14.64 24.57 -16.45 24.29 C-21.58 23.51 -24.53 23.53 -28.94 26.69 C-36.28 33.41 -40.57 41.86 -41.94 51.69 C-42.03 53.88 -42.08 56.08 -42.1 58.27 C-42.11 60.2 -42.11 60.2 -42.13 62.17 C-42.13 62.86 -42.13 63.54 -42.14 64.24 C-42.15 66.38 -42.17 68.53 -42.19 70.67 C-42.25 76.76 -42.31 82.85 -42.34 88.94 C-42.36 92.68 -42.4 96.41 -42.44 100.15 C-42.45 101.57 -42.46 102.99 -42.47 104.41 C-42.47 106.39 -42.5 108.38 -42.52 110.36 C-42.53 111.49 -42.54 112.62 -42.55 113.78 C-42.98 117 -43.71 118.37 -45.94 120.69 C-51.73 123.04 -59.57 122.14 -65.56 121 C-68.73 119.25 -68.93 118.16 -69.94 114.69 C-70.23 111.6 -70.24 108.52 -70.24 105.42 C-70.25 104.49 -70.26 103.57 -70.27 102.61 C-70.29 99.56 -70.3 96.5 -70.32 93.45 C-70.33 91.32 -70.35 89.19 -70.37 87.06 C-70.41 81.46 -70.45 75.85 -70.48 70.25 C-70.53 61.29 -70.6 52.33 -70.67 43.37 C-70.69 40.24 -70.71 37.11 -70.72 33.99 C-70.74 32.06 -70.75 30.14 -70.76 28.22 C-70.77 27.35 -70.77 26.49 -70.77 25.6 C-70.81 20.87 -71.16 16.36 -71.94 11.69 C-72.67 4.66 -72.67 4.66 -70.29 1.48 C-66.58 -1.35 -63.37 -0.93 -58.85 -0.73 C-55.74 -0.28 -53.38 0.36 -51.11 2.65 C-48.79 6.68 -47.8 11.21 -46.7 15.7 C-46.24 18.55 -46.24 18.55 -44.94 19.69 C-44.56 18.88 -44.19 18.07 -43.8 17.24 C-39.72 8.72 -35.41 1.49 -26.09 -2 C-17.15 -4.54 -8.47 -3.78 0 0 Z " fill="#131516" transform="translate(704.9375,97.3125)"/>
<path d="M0 0 C3.07 3.96 2.46 7.68 1.94 12.5 C0.8 21.26 0.8 21.26 -1.32 24.3 C-3.78 25.99 -5.26 25.63 -8.19 25.25 C-9.17 25.14 -10.14 25.03 -11.15 24.91 C-12.94 24.66 -14.73 24.38 -16.5 24.06 C-21.48 23.24 -24.8 23.51 -29.21 26.08 C-36.38 31.59 -40.6 40.74 -42.06 49.5 C-42.17 51.69 -42.22 53.87 -42.24 56.06 C-42.25 57.37 -42.26 58.68 -42.28 60.03 C-42.28 60.72 -42.29 61.41 -42.29 62.13 C-42.31 64.31 -42.33 66.49 -42.36 68.67 C-42.43 74.87 -42.49 81.07 -42.54 87.27 C-42.57 91.07 -42.61 94.87 -42.66 98.67 C-42.68 100.12 -42.69 101.56 -42.7 103.01 C-42.71 105.03 -42.73 107.05 -42.76 109.07 C-42.77 110.22 -42.78 111.36 -42.79 112.55 C-43.06 115.44 -43.46 117.1 -45.06 119.5 C-50.6 122.56 -56.93 122.02 -63.06 121.5 C-68.57 119.48 -68.57 119.48 -70.06 116.5 C-70.18 113.56 -70.24 110.64 -70.25 107.7 C-70.26 106.78 -70.27 105.87 -70.28 104.93 C-70.29 102.94 -70.31 100.96 -70.32 98.97 C-70.34 95.82 -70.37 92.67 -70.4 89.52 C-70.46 82.83 -70.51 76.13 -70.56 69.44 C-70.62 61.7 -70.68 53.97 -70.75 46.23 C-70.78 43.14 -70.8 40.05 -70.82 36.95 C-70.84 35.04 -70.86 33.12 -70.87 31.21 C-70.88 29.93 -70.88 29.93 -70.89 28.63 C-70.94 23.19 -71.39 17.89 -72.06 12.5 C-72.2 10.9 -72.32 9.29 -72.38 7.69 C-72.41 6.98 -72.45 6.27 -72.49 5.54 C-71.85 2.48 -70.53 1.36 -68.06 -0.5 C-62.94 -1.46 -57.85 -1.28 -53.06 0.81 C-49.01 6.25 -47.26 12.89 -46.06 19.5 C-45.69 18.78 -45.31 18.05 -44.93 17.3 C-40.01 8.02 -35.93 1.85 -26.06 -2.5 C-17.43 -4.79 -8.01 -3.92 0 0 Z " fill="#131516" transform="translate(943.0625,97.5)"/>
<path d="M0 0 C4.36 3.3 8.19 7.09 12 11 C13.03 12.02 13.03 12.02 14.09 13.06 C21.16 20.48 24.54 29.17 27 39 C-12.6 39 -52.2 39 -93 39 C-90.93 24.5 -82.98 11.84 -71.3 2.95 C-49 -11.89 -23.15 -15.15 0 0 Z M-30 -9 C-26 -8 -26 -8 -26 -8 Z " fill="#FAC01C" transform="translate(229,183)"/>
<path d="M0 0 C0.77 -0.03 1.54 -0.06 2.33 -0.09 C3.07 -0.1 3.82 -0.1 4.59 -0.11 C5.26 -0.13 5.94 -0.14 6.64 -0.16 C9.7 0.57 10.72 1.82 12.62 4.31 C13.02 7.29 13.18 9.9 13.16 12.87 C13.17 14.17 13.17 14.17 13.18 15.49 C13.21 18.33 13.2 21.18 13.2 24.03 C13.21 26.01 13.23 27.99 13.24 29.97 C13.28 35.18 13.3 40.4 13.3 45.61 C13.32 53.96 13.38 62.3 13.43 70.64 C13.45 73.56 13.46 76.48 13.46 79.39 C13.47 81.18 13.48 82.97 13.48 84.75 C13.48 85.56 13.48 86.38 13.48 87.21 C13.5 90.75 13.67 93.91 14.62 97.31 C16.04 97.34 17.46 97.36 18.88 97.38 C19.66 97.39 20.45 97.4 21.27 97.41 C23.53 97.32 25.45 96.94 27.62 96.31 C31.72 100.96 34.87 105.09 36.31 111.25 C35.2 116.19 31.67 118.52 27.62 121.31 C19.99 124.96 9.81 125.14 1.62 123.31 C-2.74 121.01 -6.13 118.03 -9.38 114.31 C-9.38 113.32 -9.38 112.33 -9.38 111.31 C-10.03 111.31 -10.7 111.31 -11.38 111.31 C-14.59 99.62 -14.83 88.51 -14.81 76.47 C-14.81 74.49 -14.82 72.5 -14.82 70.52 C-14.83 66.39 -14.83 62.26 -14.82 58.13 C-14.81 52.85 -14.83 47.57 -14.86 42.28 C-14.88 38.2 -14.88 34.12 -14.87 30.03 C-14.87 28.08 -14.88 26.14 -14.89 24.19 C-14.9 21.47 -14.89 18.75 -14.88 16.03 C-14.89 15.24 -14.9 14.44 -14.91 13.62 C-14.84 8.41 -13.81 5.44 -10.38 1.31 C-7.12 -0.32 -3.58 0.04 0 0 Z M-13.38 94.31 C-12.38 97.31 -12.38 97.31 -12.38 97.31 Z M16.62 99.31 C20.62 100.31 20.62 100.31 20.62 100.31 Z " fill="#141617" transform="translate(977.375,95.6875)"/>
<path d="M0 0 C2.24 1.47 4 2.98 5.86 4.9 C6.5 5.44 7.14 5.99 7.8 6.54 C13.6 11.71 16.63 17.13 17.28 24.91 C17.76 34.74 16.64 42.19 10.15 49.95 C3.57 56.9 -3.47 59.89 -13.01 60.21 C-22.73 59.92 -28.93 57.08 -35.94 50.31 C-42.3 43.34 -45.64 36.3 -45.46 26.82 C-44.61 19.12 -40.87 11.16 -35.02 6.05 C-24.99 -1.94 -12.52 -4.38 0 0 Z M-44.14 23.9 C-43.14 25.9 -43.14 25.9 -43.14 25.9 Z " fill="#FAC01C" transform="translate(142.13671875,1.09765625)"/>
<path d="M0 0 C3.82 4.15 6.36 8.65 6.69 14.38 C6.36 20.16 3.85 24.76 -0.25 28.75 C-5.31 31.96 -9.79 33.27 -15.81 32.38 C-22.17 30.24 -25.92 26.97 -29.06 21 C-30.85 14.76 -29.85 10.02 -26.81 4.38 C-19.4 -4.17 -9.85 -5.69 0 0 Z " fill="#131516" transform="translate(989.8125,44.625)"/>
<path d="M0 0 C3.96 0 7.92 0 12 0 C12 0.33 12 0.66 12 1 C8.04 1 4.08 1 0 1 C0 0.67 0 0.34 0 0 Z " fill="#141617" transform="translate(398,52)"/>
<path d="M0 0 C2.64 0 5.28 0 8 0 C8 0.33 8 0.66 8 1 C5.36 1 2.72 1 0 1 C0 0.67 0 0.34 0 0 Z " fill="#141617" transform="translate(1121,73)"/>
<path d="M0 0 C0.33 0 0.66 0 1 0 C1 1.98 1 3.96 1 6 C0.67 6 0.34 6 0 6 C0 4.02 0 2.04 0 0 Z " fill="#141617" transform="translate(498,237)"/>
<path d="M0 0 C1.98 0 3.96 0 6 0 C6 0.33 6 0.66 6 1 C4.02 1 2.04 1 0 1 C0 0.67 0 0.34 0 0 Z " fill="#00CB58" transform="translate(0,14)"/>
<path d="M0 0 C0.33 0 0.66 0 1 0 C1 1.65 1 3.3 1 5 C0.67 5 0.34 5 0 5 C0 3.35 0 1.7 0 0 Z " fill="#141617" transform="translate(1157,155)"/>
<path d="M0 0 C3 1 3 1 3 1 Z " fill="#141617" transform="translate(1074,201)"/>
<path d="" fill="#141617" transform="translate(0,0)"/>
<path d="" fill="#141617" transform="translate(0,0)"/>
<path d="" fill="#141617" transform="translate(0,0)"/>
<path d="" fill="#141617" transform="translate(0,0)"/>
<path d="" fill="#141617" transform="translate(0,0)"/>
</svg>
