<?xml version="1.0" encoding="UTF-8"?>
<svg version="1.1" xmlns="http://www.w3.org/2000/svg" width="1280" height="279">
<path d="M0 0 C3.32729469 0.12230227 6.65384472 0.25916214 9.98046875 0.3984375 C11.37839661 0.44955688 11.37839661 0.44955688 12.80456543 0.50170898 C42.61678004 1.79307159 69.66679003 18.91476939 89.51367188 40.32714844 C114.3736438 68.30686717 119.17550181 101.88176071 119.1328125 138.0078125 C119.13348715 140.02611299 119.13445852 142.04441341 119.13571167 144.06271362 C119.13717768 148.26675194 119.13506729 152.47076887 119.13037109 156.67480469 C119.12463755 162.07078793 119.12798247 167.46672183 119.13394356 172.86270332 C119.13754756 177.0181211 119.13641196 181.17352704 119.13381577 185.32894516 C119.13314795 187.32012818 119.13396986 189.31131227 119.13629532 191.30249405 C119.13882314 194.07164642 119.13498108 196.84071704 119.12939453 199.60986328 C119.13141876 200.4347374 119.13344299 201.25961151 119.13552856 202.10948181 C119.11427191 207.77145617 119.11427191 207.77145617 118 210 C83.63819959 211.33587993 55.44812391 197.45506618 30.4921875 174.71484375 C24.56947912 169.02945643 19.68762692 162.72645217 15 156 C14.30777344 155.01386719 13.61554687 154.02773437 12.90234375 153.01171875 C1.05753129 135.05050988 -1.03345842 118.28381228 -0.70975757 97.03430772 C-0.66528787 93.60986445 -0.6618317 90.18535338 -0.65357971 86.76066589 C-0.63202714 80.30810081 -0.57486978 73.85638952 -0.50413328 67.40419644 C-0.4252444 60.04488813 -0.3872432 52.68553388 -0.35226524 45.3259064 C-0.27956173 30.21679941 -0.15684735 15.10848605 0 0 Z " fill="#00CB58" transform="translate(0,14)"/>
<path d="M0 0 C1.22589844 -0.01417969 2.45179688 -0.02835937 3.71484375 -0.04296875 C6.86207345 0.17370167 8.54671618 0.33904851 11.0625 2.1875 C12.07421875 3.921875 12.07421875 3.921875 12.75 5.9375 C13.09611328 6.91976562 13.09611328 6.91976562 13.44921875 7.921875 C18.08447067 25.04573558 14.85844651 43.83718609 8.96484375 60.18359375 C7.94443838 63.58052763 7.48784564 66.8555471 7.0625 70.375 C5.35014464 83.6094753 -1.90526049 94.4583791 -12.078125 103.03515625 C-18.05506395 107.5341909 -24.33697376 111.58739867 -30.60546875 115.66503906 C-34.27629544 118.06152935 -37.91863094 120.5003037 -41.5625 122.9375 C-42.80454435 123.76583969 -44.04671693 124.59398715 -45.2890625 125.421875 C-46.16304687 126.00453125 -47.03703125 126.5871875 -47.9375 127.1875 C-46.720625 127.02765625 -45.50375 126.8678125 -44.25 126.703125 C-28.02192665 124.69244104 -10.13122489 127.46198711 3.4375 137.0625 C10.38686985 142.6971242 15.59445775 149.17138213 17.0625 158.1875 C17.86578336 170.11316834 16.22855727 178.74140047 8.51953125 188.05078125 C-0.5480295 198.00769763 -13.46687576 204.65209184 -26.95043945 205.5012207 C-30.74224874 205.66687826 -34.52916931 205.69949039 -38.32421875 205.68847656 C-40.67053226 205.68750701 -43.01353314 205.72919488 -45.359375 205.7734375 C-61.81526327 205.90457477 -75.14938606 201.64493442 -87.25 189.953125 C-89.28861521 187.77960143 -91.13668523 185.56033829 -92.9375 183.1875 C-93.39253906 182.61 -93.84757812 182.0325 -94.31640625 181.4375 C-99.64298166 173.1228457 -97.56248278 160.0530925 -95.6875 150.875 C-94.6511005 146.37817771 -93.33397042 144.27815795 -89.9375 141.1875 C-89.12309084 140.0788527 -88.3315077 138.95310873 -87.5625 137.8125 C-79.2305184 126.58426283 -68.72117296 117.58655047 -56.9375 110.1875 C-59.79168638 108.28470908 -62.31992436 107.18133663 -65.5 105.9375 C-79.70356805 100.07080885 -88.71170575 92.85656744 -95.02734375 78.75390625 C-98.69512102 68.41171883 -97.16279184 55.50920624 -93.4375 45.375 C-90.6648013 39.76682452 -85.72463608 36.04523832 -80.9375 32.1875 C-79.72513672 31.16462891 -79.72513672 31.16462891 -78.48828125 30.12109375 C-75.78502984 28.07192155 -73.0993982 26.56911703 -70.0625 25.0625 C-69.07507813 24.56492187 -68.08765625 24.06734375 -67.0703125 23.5546875 C-53.28122811 17.53700728 -36.78839422 17.86288814 -22.6875 22.8125 C-17.05329046 25.26459784 -12.52539773 29.16576837 -7.9375 33.1875 C-8.05867187 32.5577124 -8.17984375 31.9279248 -8.3046875 31.27905273 C-8.85558344 28.39558925 -9.39660988 25.51035643 -9.9375 22.625 C-10.12828125 21.63435547 -10.3190625 20.64371094 -10.515625 19.62304688 C-13.07102273 5.88778409 -13.07102273 5.88778409 -9.9375 1.1875 C-6.46363568 0.02954523 -3.65980696 0.01920151 0 0 Z M-63.8359375 50.3515625 C-68.53951451 57.13089649 -69.90235739 62.97549152 -68.9375 71.1875 C-67.01396967 76.71187912 -64.43132064 81.37577714 -59.9375 85.1875 C-50.91539466 89.3634459 -42.62077384 90.75514517 -33.17578125 87.296875 C-27.16263022 84.31653487 -21.88224531 79.19478043 -18.9375 73.1875 C-17.29764231 66.53696604 -17.47477113 60.2081802 -20.9375 54.1875 C-25.80918704 48.66124709 -31.44864472 44.57017089 -38.890625 43.75390625 C-40.32271611 43.72990287 -41.75535653 43.72935563 -43.1875 43.75 C-44.31248901 43.7646228 -44.31248901 43.7646228 -45.46020508 43.77954102 C-52.55507913 44.00539489 -58.92996969 44.75916299 -63.8359375 50.3515625 Z M-63.9375 151.1875 C-64.81664062 151.64511719 -65.69578125 152.10273438 -66.6015625 152.57421875 C-69.13901682 154.32667466 -69.954225 155.30250632 -70.9375 158.1875 C-71.66177331 162.81948048 -71.38727085 166.30461647 -69.25 170.5 C-64.85043216 175.61301128 -61.43319648 177.43865864 -54.9375 179.1875 C-54.6075 179.8475 -54.2775 180.5075 -53.9375 181.1875 C-50.45840629 181.24633728 -46.97944326 181.28137399 -43.5 181.3125 C-42.03916992 181.33763672 -42.03916992 181.33763672 -40.54882812 181.36328125 C-32.45569262 181.41741594 -24.7941218 181.07837228 -18 176.25 C-17.26910156 175.74597656 -16.53820312 175.24195313 -15.78515625 174.72265625 C-13.2526962 172.61851925 -12.0738388 170.63846679 -11.125 167.5 C-10.87763055 163.12980646 -11.8464811 160.00873454 -13.9375 156.1875 C-19.80124668 149.79068544 -29.7767246 147.31560006 -38.1953125 146.94921875 C-47.43344538 146.74171607 -55.5490095 146.78722165 -63.9375 151.1875 Z M-43.9375 182.1875 C-43.9375 182.5175 -43.9375 182.8475 -43.9375 183.1875 C-41.6275 183.1875 -39.3175 183.1875 -36.9375 183.1875 C-36.9375 182.8575 -36.9375 182.5275 -36.9375 182.1875 C-39.2475 182.1875 -41.5575 182.1875 -43.9375 182.1875 Z " fill="#000000" transform="translate(594.9375,73.8125)"/>
<path d="M0 0 C3.75521671 2.76700179 5.09131453 6.55732748 6 11 C6.28542811 15.9117256 6.29386882 20.8308 6.3125 25.75 C6.31578308 26.4505249 6.31906616 27.1510498 6.32244873 27.87280273 C6.33857489 38.46738561 5.48546967 47.92521175 2 58 C0.68646475 62.27879207 -0.31433903 66.47977324 -1.03759766 70.89770508 C-3.93963005 88.44219178 -13.86812501 99.44308751 -28.04394531 109.64599609 C-32.6807515 112.8556475 -37.47999248 115.8011335 -42.30859375 118.7109375 C-44.9055435 120.27883606 -47.35165334 121.96405481 -49.7890625 123.76953125 C-53.00841052 126.00584235 -54.20648864 126.57477445 -58 126 C-58 126.99 -58 127.98 -58 129 C-56.80375 128.67 -55.6075 128.34 -54.375 128 C-40.17255853 124.91540724 -23.74529051 126.88634948 -11 134 C-10.08347656 134.5053125 -9.16695312 135.010625 -8.22265625 135.53125 C-0.44758165 140.12324037 5.61020544 145.58886973 8.52734375 154.41015625 C10.29654463 164.10420738 10.52007443 175.51412722 5 184 C-4.12804583 195.89759654 -15.05817538 203.53544878 -30 206 C-32.64389544 206.12765212 -35.26155959 206.21118038 -37.90625 206.23828125 C-39.04797668 206.25038887 -39.04797668 206.25038887 -40.21276855 206.26274109 C-41.823138 206.27653526 -43.43353611 206.28727817 -45.04394531 206.29516602 C-46.66708132 206.30662155 -48.2901816 206.32697014 -49.91308594 206.35668945 C-66.17942892 206.65392051 -80.65371016 203.9577534 -93.38671875 192.93359375 C-101.59381335 184.45343501 -103.64479116 175.24323934 -103.54125977 163.77148438 C-102.88235038 147.7698783 -93.56074436 134.5695537 -82.28125 123.87890625 C-76.82584387 118.94156509 -70.5843417 114.29217085 -64 111 C-65.09054687 110.58041016 -65.09054687 110.58041016 -66.203125 110.15234375 C-82.09020932 103.81787808 -94.4331893 96.57947274 -101.90625 80.69921875 C-106.03330202 70.51424396 -104.91480253 58.07863654 -101.3203125 47.8984375 C-95.61300257 35.3693725 -84.36042359 27.23775035 -72 22 C-59.58137448 17.55706317 -44.34304779 17.05627598 -32 22 C-26.57435457 25.07474593 -21.2676332 28.40187669 -17 33 C-17.2165625 31.91203125 -17.433125 30.8240625 -17.65625 29.703125 C-21.36979717 10.40676786 -21.36979717 10.40676786 -20 4 C-14.61846685 -1.14159218 -7.00709923 -1.08882244 0 0 Z M-71.375 51.13671875 C-75.54997587 55.9238906 -77.82339438 62.56479553 -77.44921875 68.92578125 C-75.86885724 76.22292876 -72.17459747 81.92476567 -66 86 C-58.41366437 90.16504701 -49.51769328 91.10556271 -41.1328125 88.8515625 C-34.20912246 86.08715878 -30.12393381 81.62273968 -27 75 C-25.11957507 69.3587252 -25.219535 63.21816369 -27.1875 57.625 C-32.07699348 50.54366462 -37.65536258 46.22004241 -46.125 44.5625 C-55.32169902 43.39849362 -64.14407602 45.06575549 -71.375 51.13671875 Z M-75 154.5625 C-78.26747352 158.54473335 -78.40869499 161.34906801 -78.3359375 166.3984375 C-77.6833143 171.45247298 -75.04400792 174.39216113 -71.1328125 177.46875 C-60.7847808 184.39428095 -47.85186463 185.15892759 -35.86328125 182.79296875 C-30.01041277 181.17205156 -25.00704423 178.76228274 -20.4375 174.75 C-18.41746062 170.88557684 -17.80947929 167.35022289 -18 163 C-19.95655787 157.93596786 -24.14302928 154.35566062 -28.9921875 152.0546875 C-36.4116038 149.17091437 -43.35248873 148.79013983 -51.25 148.75 C-52.24902344 148.729375 -53.24804688 148.70875 -54.27734375 148.6875 C-62.10483136 148.64657196 -68.89957757 149.35172251 -75 154.5625 Z " fill="#000000" transform="translate(1090,73)"/>
<path d="M0 0 C1.27488281 -0.04898438 2.54976563 -0.09796875 3.86328125 -0.1484375 C8.63735346 0.50501059 11.2934857 2.00978076 14.6875 5.375 C16.23235027 7.68213098 17.36982813 9.63926403 18.5 12.125 C18.81839844 12.7938623 19.13679688 13.46272461 19.46484375 14.15185547 C22.5779226 20.84289565 25.39251129 27.67144145 28.1875 34.5 C28.85616089 36.11793457 28.85616089 36.11793457 29.53833008 37.76855469 C29.94849365 38.79625977 30.35865723 39.82396484 30.78125 40.8828125 C31.14927734 41.79691895 31.51730469 42.71102539 31.89648438 43.65283203 C32.77448438 46.6743444 32.82788368 49.24455903 32.6875 52.375 C33.3475 52.375 34.0075 52.375 34.6875 52.375 C41.98049054 69.87270561 49.14910191 87.41367377 56.15396118 105.02908325 C58.03039672 109.74160664 59.92502661 114.44659803 61.82629395 119.14915466 C63.29566458 122.78431893 64.76102774 126.42109326 66.22619629 130.05795288 C66.94402818 131.83686356 67.66364166 133.61505648 68.38513184 135.39248657 C69.39961501 137.8925474 70.40747401 140.39518957 71.4140625 142.8984375 C71.71561249 143.63683365 72.01716248 144.3752298 72.32785034 145.13600159 C74.80305859 151.3219885 77.11011591 157.61314547 76.6875 164.375 C69.40305377 168.61771291 61.51530817 168.3607984 53.33203125 166.9765625 C48.14830918 165.21432586 46.09555336 160.93441068 43.6875 156.375 C41.76016556 151.97347985 40.05694556 147.50013879 38.375 143 C37.92060547 141.81277344 37.46621094 140.62554687 36.99804688 139.40234375 C33.6875 130.67046523 33.6875 130.67046523 33.6875 128.375 C11.2475 128.375 -11.1925 128.375 -34.3125 128.375 C-35.3025 132.005 -36.2925 135.635 -37.3125 139.375 C-38.52685198 143.20359415 -39.88268272 146.9735999 -41.25 150.75 C-41.58451172 151.70777344 -41.91902344 152.66554687 -42.26367188 153.65234375 C-46.31448876 164.87599438 -46.31448876 164.87599438 -51.3125 167.375 C-54.24207281 167.52673086 -57.13195745 167.60645226 -60.0625 167.625 C-61.26132812 167.6559375 -61.26132812 167.6559375 -62.484375 167.6875 C-67.53946001 167.72075714 -70.88506171 167.08859121 -75.3125 164.375 C-75.72253599 157.56870039 -74.33267007 152.32937733 -72.0859375 145.93359375 C-71.73220062 144.9011705 -71.37846375 143.86874725 -71.01400757 142.80503845 C-66.22266724 128.98830804 -60.98666661 115.33041239 -55.78463364 101.66453552 C-53.18004324 94.81730966 -50.58832047 87.96519493 -47.99609375 81.11328125 C-47.71000811 80.35754696 -47.42392246 79.60181267 -47.12916756 78.82317734 C-43.28648487 68.6683131 -39.49893666 58.49572987 -35.78515625 48.29296875 C-35.36949402 47.15211319 -34.95383179 46.01125763 -34.52557373 44.83583069 C-32.61671073 39.58990253 -30.71805552 34.3405369 -28.83251953 29.08618164 C-28.16327182 27.23967871 -27.49384936 25.3932391 -26.82421875 23.546875 C-26.53885757 22.7406218 -26.2534964 21.93436859 -25.95948792 21.10368347 C-20.57174113 6.31986295 -20.57174113 6.31986295 -14.75 2.875 C-9.67212589 0.65920039 -5.57000398 0.14554784 0 0 Z M-1.3125 34.375 C-4.77664059 41.04143741 -4.77664059 41.04143741 -5.3125 48.375 C-6.3025 48.705 -7.2925 49.035 -8.3125 49.375 C-9.37901929 51.87621892 -10.24484473 54.27039943 -11.0546875 56.85546875 C-11.30493683 57.61990799 -11.55518616 58.38434723 -11.8130188 59.17195129 C-12.61586002 61.63195034 -13.40213899 64.09687091 -14.1875 66.5625 C-14.96657502 68.97259691 -15.74905507 71.38156508 -16.5322876 73.79031372 C-17.04608909 75.37193317 -17.55793936 76.95418786 -18.06781006 78.53707886 C-20.04261013 84.64233354 -22.18965942 90.66997819 -24.43408203 96.6809082 C-25.46749591 99.37808942 -25.46749591 99.37808942 -25.3125 102.375 C-22.89458596 103.58395702 -21.46753275 103.46161844 -18.77099609 103.39672852 C-17.83017181 103.37663223 -16.88934753 103.35653595 -15.92001343 103.33583069 C-14.90226837 103.30879562 -13.88452332 103.28176056 -12.8359375 103.25390625 C-11.79555328 103.23029526 -10.75516907 103.20668427 -9.68325806 103.18235779 C-6.35120356 103.10561424 -3.01937525 103.02163584 0.3125 102.9375 C2.56769716 102.88429003 4.82290545 102.83154956 7.078125 102.77929688 C12.61472413 102.64998468 18.15115447 102.51472768 23.6875 102.375 C23.6875 100.395 23.6875 98.415 23.6875 96.375 C22.6975 96.375 21.7075 96.375 20.6875 96.375 C20.57921875 94.78751953 20.57921875 94.78751953 20.46875 93.16796875 C19.70214607 87.03918628 17.35724614 81.4343044 15.1875 75.6875 C14.36139329 73.47644968 13.53835652 71.26424934 12.71875 69.05078125 C12.35330078 68.08052002 11.98785156 67.11025879 11.61132812 66.1105957 C10.74230533 63.53728694 10.15227002 61.04773178 9.6875 58.375 C8.6975 58.375 7.7075 58.375 6.6875 58.375 C6.58566406 57.2303125 6.48382813 56.085625 6.37890625 54.90625 C5.798476 50.26280799 4.35195368 46.20240134 2.625 41.875 C2.34333984 41.14796875 2.06167969 40.4209375 1.77148438 39.671875 C1.08491552 37.90308745 0.38736318 36.13856959 -0.3125 34.375 C-0.6425 34.375 -0.9725 34.375 -1.3125 34.375 Z " fill="#000000" transform="translate(405.3125,51.625)"/>
<path d="M0 0 C9.3099005 11.66352703 9.96536665 28.97726649 8.5546875 43.26171875 C7.20645582 54.70916576 5.16084088 64.64162979 0 75 C-0.50273437 76.01964844 -1.00546875 77.03929688 -1.5234375 78.08984375 C-15.83605506 104.65545829 -40.97007177 116.42473302 -67.625 127.5625 C-68.36719788 127.87617523 -69.10939575 128.18985046 -69.87408447 128.51303101 C-85.71767131 135.17856456 -85.71767131 135.17856456 -93 135 C-96.19955646 132.43075996 -97.20634578 129.42838585 -98.625 125.625 C-99.05039063 124.50351563 -99.47578125 123.38203125 -99.9140625 122.2265625 C-105.32114331 106.16091951 -103.17612949 85.90712964 -98 70 C-97.58427734 68.63488281 -97.58427734 68.63488281 -97.16015625 67.2421875 C-92.96016497 55.20350281 -85.08810447 45.61400995 -76.3125 36.625 C-75.60722168 35.88830078 -74.90194336 35.15160156 -74.17529297 34.39257812 C-63.45819329 23.77836643 -49.45794183 18.17993443 -35.8125 12.3125 C-33.60001607 11.3520174 -31.38851588 10.38929561 -29.17707825 9.42640686 C-27.75374441 8.80752536 -26.32967579 8.19033063 -24.90483093 7.57493591 C-19.97513066 5.44294087 -15.0965738 3.21653797 -10.24853516 0.90380859 C-6.44913142 -0.62337845 -4.04430942 -0.78048077 0 0 Z M-101 94 C-101 95.65 -101 97.3 -101 99 C-100.67 99 -100.34 99 -100 99 C-100 97.35 -100 95.7 -100 94 C-100.33 94 -100.66 94 -101 94 Z " fill="#91DC1A" transform="translate(239,32)"/>
<path d="M0 0 C12.13843666 10.33407445 20.03146228 24.18744584 22.3515625 39.96484375 C22.58699422 44.19226989 22.58241774 48.4189579 22.6015625 52.65234375 C22.6221875 53.77318359 22.6428125 54.89402344 22.6640625 56.04882812 C22.7438704 73.23745394 16.49887533 88.67360588 4.6640625 101.08984375 C-8.52613014 113.73044503 -23.74904493 117.93698183 -41.65429688 118.00830078 C-58.34222644 117.64463141 -72.37154784 110.88804075 -84.4609375 99.65234375 C-97.1020074 86.03646497 -102.10907696 69.9592668 -101.62744141 51.61523438 C-101.04618087 39.59705885 -98.31272361 28.54991986 -92.7734375 17.83984375 C-92.30055298 16.91631104 -92.30055298 16.91631104 -91.81811523 15.97412109 C-89.37152819 11.5370384 -86.69321068 8.88545654 -82.6484375 5.96484375 C-81.9884375 5.96484375 -81.3284375 5.96484375 -80.6484375 5.96484375 C-80.44863281 5.22363281 -80.24882813 4.48242188 -80.04296875 3.71875 C-78.22766646 0.13390935 -75.75533467 -1.25368814 -72.3359375 -3.09765625 C-71.71581787 -3.44127197 -71.09569824 -3.7848877 -70.45678711 -4.13891602 C-48.34037262 -15.95845286 -20.16224777 -15.49340869 0 0 Z M-63.6484375 24.96484375 C-71.82088721 36.02311398 -73.43801866 47.97162563 -72.0859375 61.46484375 C-70.6328132 71.09302792 -66.58509752 81.22775627 -58.75390625 87.4765625 C-49.10695624 93.39047687 -40.12488823 94.13104227 -29.2109375 91.7265625 C-23.09306878 89.90798872 -17.0787451 87.58006065 -13.6484375 81.96484375 C-13.39718924 79.29722611 -13.39718924 79.29722611 -13.6484375 76.96484375 C-12.6584375 76.96484375 -11.6684375 76.96484375 -10.6484375 76.96484375 C-7.7084882 69.57207999 -7.13812385 63.13605156 -7.2109375 55.21484375 C-7.22338501 53.48331055 -7.22338501 53.48331055 -7.23608398 51.71679688 C-7.48759343 39.05002945 -9.85222635 28.61650038 -18.6484375 18.96484375 C-24.79927132 13.75155042 -33.54332201 12.50561298 -41.38671875 12.7109375 C-50.43320245 13.72651857 -57.66415841 18.21334939 -63.6484375 24.96484375 Z " fill="#000000" transform="translate(1215.6484375,104.03515625)"/>
<path d="M0 0 C2 2 2 2 2.265625 4.72265625 C2.23417496 11.44510334 2.00684873 17.55695935 0 24 C-3.3321713 26.22144753 -4.31342574 26.23080566 -8.18359375 26.16015625 C-9.69856445 26.1437207 -9.69856445 26.1437207 -11.24414062 26.12695312 C-12.29794922 26.10568359 -13.35175781 26.08441406 -14.4375 26.0625 C-16.51946067 26.02799236 -18.60149978 25.99786963 -20.68359375 25.97265625 C-21.60712646 25.95468994 -22.53065918 25.93672363 -23.48217773 25.91821289 C-25.84987853 25.99512356 -27.76943895 26.2107487 -30 27 C-31.12506347 28.85907479 -31.12506347 28.85907479 -32 31 C-32.94165392 32.15957954 -33.90120897 33.30477416 -34.875 34.4375 C-42.08663345 44.03922151 -42.57583739 55.51500473 -42.50390625 67.09375 C-42.5112959 68.49810037 -42.52085612 69.90244079 -42.53245544 71.3067627 C-42.55886038 74.96097745 -42.56476146 78.61486522 -42.56335449 82.26916504 C-42.56110433 88.14368379 -42.57534169 94.01780414 -42.61894035 99.89216614 C-42.62872691 101.93138111 -42.62009822 103.96995427 -42.61024475 106.00915527 C-42.61712814 107.24814575 -42.62401154 108.48713623 -42.63110352 109.76367188 C-42.63014175 110.85031128 -42.62917999 111.93695068 -42.62818909 113.05651855 C-43.05173586 116.40957253 -44.02528206 118.28318097 -46 121 C-50.470604 124.1341287 -55.78611985 123.21416788 -61 123 C-62.299375 122.95875 -63.59875 122.9175 -64.9375 122.875 C-68 122 -68 122 -70.15827942 119.51153564 C-72.47651758 115.09144281 -72.56895112 111.8478746 -72.5300293 106.94042969 C-72.53876068 106.04853439 -72.54749207 105.1566391 -72.55648804 104.23771667 C-72.5808173 101.29889656 -72.5774548 98.36078291 -72.57421875 95.421875 C-72.5866723 93.36931164 -72.60100885 91.31675893 -72.61714172 89.26422119 C-72.65516145 83.86266896 -72.67034979 78.46129983 -72.67993164 73.05963135 C-72.69966786 64.42901495 -72.75680601 55.79853808 -72.80869484 47.16806793 C-72.82393731 44.16482796 -72.83121424 41.16165791 -72.83683777 38.15838623 C-72.84386194 36.29797332 -72.85096347 34.43756071 -72.8581543 32.57714844 C-72.85762558 31.75290878 -72.85709686 30.92866913 -72.85655212 30.07945251 C-72.8818014 25.11806431 -73.20362575 20.25794112 -73.75571918 15.32687759 C-74.82882435 5.10509914 -74.82882435 5.10509914 -72.125 1.5 C-67.57228757 -1.71367936 -63.43733916 -1.426622 -58 -1 C-54.44578465 -0.01271796 -52.71621553 0.79049695 -50.8203125 3.9921875 C-48.87910138 8.20050649 -47.36251524 12.57182548 -46 17 C-45.47212891 16.03900391 -45.47212891 16.03900391 -44.93359375 15.05859375 C-40.15461971 6.68603087 -35.50805296 0.05615988 -26 -3 C-17.34827559 -5.03569986 -7.8329882 -4.2570588 0 0 Z " fill="#000000" transform="translate(706,97)"/>
<path d="M0 0 C2.42319238 2.31280834 2.95215948 3.61110286 3.36328125 6.953125 C3.11734265 22.92021553 3.11734265 22.92021553 -0.76171875 26.73046875 C-3.5607773 28.31806741 -4.90671928 28.1476212 -8.0625 27.6875 C-18.37479472 26.24606804 -18.37479472 26.24606804 -28.3125 28.4375 C-37.07748625 36.79481247 -40.21763304 46.42128588 -40.54917526 58.33050537 C-40.59479245 60.49760642 -40.62731335 62.66470256 -40.66015625 64.83203125 C-40.69443414 66.35661672 -40.73022168 67.88116892 -40.7674408 69.40568542 C-40.86203642 73.39380948 -40.9417479 77.38206574 -41.01654053 81.37060547 C-41.13700177 87.77088877 -41.27109488 94.17075864 -41.42269707 100.57037926 C-41.47193438 102.79935239 -41.50910508 105.02830673 -41.54542542 107.25752258 C-41.57543642 108.62327161 -41.60592319 109.98901029 -41.63696289 111.35473633 C-41.65900284 112.54448563 -41.68104279 113.73423492 -41.70375061 114.96003723 C-41.98942035 117.89143695 -42.32844952 119.59770695 -44 122 C-50.99278956 125.04034329 -59.61059387 125.32129391 -66.6875 122.5625 C-69 121 -69 121 -70 120 C-70.15421681 118.19907526 -70.23988839 116.39224777 -70.29882812 114.58569336 C-70.33818481 113.41841202 -70.3775415 112.25113068 -70.41809082 111.04847717 C-70.45543335 109.76275314 -70.49277588 108.47702911 -70.53125 107.15234375 C-70.57317858 105.80126373 -70.61513054 104.45018444 -70.65710449 103.09910583 C-71.16460896 86.15929284 -71.33366122 69.21277802 -71.52606201 52.26708984 C-71.57763783 47.72986068 -71.63250014 43.19269548 -71.69187927 38.65556145 C-71.71771114 36.58709188 -71.73891852 34.51861205 -71.7598877 32.4500885 C-71.86178939 24.62670834 -72.24693617 16.90826605 -72.95593262 9.12071228 C-72.9985038 6.10595586 -72.92402077 4.57364615 -71.3125 2.0625 C-66.39848471 -0.9971699 -61.64367074 -0.96812969 -56 0 C-52.38406154 1.71254147 -50.46048466 3.16390515 -48.8125 6.8125 C-48.33490234 7.85857422 -48.33490234 7.85857422 -47.84765625 8.92578125 C-46.76316915 11.57952618 -45.82368503 14.25438322 -45 17 C-44.5875 16.35933594 -44.175 15.71867187 -43.75 15.05859375 C-38.63352708 7.39530507 -32.72798966 -0.43535124 -23.3125 -2.625 C-15.26272947 -3.53629478 -7.55315471 -3.31843518 0 0 Z " fill="#000000" transform="translate(900,96)"/>
<path d="M0 0 C0.68876221 0.34458252 1.37752441 0.68916504 2.0871582 1.04418945 C8.63598802 4.50075064 13.16582087 8.95163714 18.0625 14.5 C19.33867187 15.75876953 19.33867187 15.75876953 20.640625 17.04296875 C27.51634332 24.01849589 33.0625 33.52350356 33.0625 43.5 C-6.5375 43.5 -46.1375 43.5 -86.9375 43.5 C-85.81174544 33.36820892 -85.81174544 33.36820892 -84.23046875 30.296875 C-83.7209668 29.29140625 -83.7209668 29.29140625 -83.20117188 28.265625 C-82.84603516 27.60046875 -82.49089844 26.9353125 -82.125 26.25 C-81.78146484 25.569375 -81.43792969 24.88875 -81.08398438 24.1875 C-73.54401371 9.58853241 -59.74562441 2.05565058 -44.91015625 -3.66796875 C-30.43534527 -7.9921409 -13.46394638 -6.76962873 0 0 Z " fill="#FAC01C" transform="translate(222.9375,178.5)"/>
<path d="M0 0 C0.69867187 -0.01998047 1.39734375 -0.03996094 2.1171875 -0.06054688 C5.55299741 -0.05730554 7.74660547 0.28320099 10.69628906 2.0793457 C13.63945506 5.09206723 13.63706134 6.49902817 13.671875 10.6640625 C13.69580322 11.97922852 13.71973145 13.29439453 13.74438477 14.64941406 C13.74655986 16.12044229 13.74842096 17.59147101 13.75 19.0625 C13.76967847 20.60126919 13.79181099 22.1400086 13.81616211 23.67871094 C13.8681468 27.1930067 13.90547117 30.70712605 13.93505859 34.22167969 C14.00162078 41.39079266 14.13576833 48.55843709 14.26953125 55.7265625 C14.53308686 69.96325421 14.77255987 84.20018654 15 98.4375 C21.435 97.4475 21.435 97.4475 28 96.4375 C36.46582071 107.88203541 36.46582071 107.88203541 37 113.4375 C34.40808711 118.7250023 30.76135172 122.1578492 25.4375 124.625 C17.38188872 126.52905358 6.28394102 128.52443397 -1.2265625 124.13671875 C-3.25252598 122.65224006 -5.14247441 121.12692372 -7 119.4375 C-7.56976562 118.96054688 -8.13953125 118.48359375 -8.7265625 117.9921875 C-10 116.4375 -10 116.4375 -10 112.4375 C-10.99 112.1075 -11.98 111.7775 -13 111.4375 C-17.55844962 91.74322739 -16.21653966 70.63966507 -16.24023438 50.53637695 C-16.24577975 46.52101358 -16.27000041 42.50597892 -16.29820633 38.4907198 C-16.31686918 35.36361228 -16.32203957 32.23658499 -16.32357025 29.1094265 C-16.32657355 27.62837046 -16.33452233 26.14731504 -16.34775543 24.66631508 C-16.46799773 10.21633543 -16.46799773 10.21633543 -13 3.4375 C-9.13329929 -0.04943546 -4.99540116 -0.05069134 0 0 Z " fill="#000000" transform="translate(935,94.5625)"/>
<path d="M0 0 C2.73049513 4.33666874 2.23336576 9.45117031 2.26782227 14.40332031 C2.27772186 15.28172577 2.28762146 16.16013123 2.29782104 17.06515503 C2.32937961 19.96528438 2.3541712 22.86543009 2.37890625 25.765625 C2.39948065 27.77773461 2.42047725 29.78983994 2.44187927 31.80194092 C2.49704976 37.09550512 2.54648121 42.38910801 2.59472656 47.68273926 C2.64497824 53.08540282 2.70064517 58.48801028 2.75585938 63.890625 C2.86337952 74.48953539 2.96483816 85.08849451 3.0625 95.6875 C4.02309326 95.56310547 4.98368652 95.43871094 5.97338867 95.31054688 C7.2338501 95.17712891 8.49431152 95.04371094 9.79296875 94.90625 C11.04231201 94.76123047 12.29165527 94.61621094 13.57885742 94.46679688 C17.0625 94.6875 17.0625 94.6875 19.5769043 96.74902344 C22.90740278 101.26565872 25.3922255 105.97225794 25.0625 111.6875 C22.0095542 118.17500983 17.31447981 120.3601613 11 122.9375 C4.36706529 124.60701418 -4.34082342 125.04069495 -10.8125 122.625 C-14.88806465 120.09814992 -18.76537709 117.31278333 -21.9375 113.6875 C-21.9375 112.6975 -21.9375 111.7075 -21.9375 110.6875 C-22.5975 110.6875 -23.2575 110.6875 -23.9375 110.6875 C-26.77933228 98.40530207 -27.38293431 86.66239736 -27.3359375 74.0859375 C-27.3379641 72.15019624 -27.34088038 70.21445572 -27.34463501 68.27871704 C-27.34902025 64.25653691 -27.34274422 60.23455874 -27.32861328 56.21240234 C-27.31140759 51.0656473 -27.32145808 45.91935781 -27.33933067 40.77261925 C-27.35017356 36.79029835 -27.34672182 32.80808793 -27.3389473 28.8257637 C-27.33695266 26.92720102 -27.33937857 25.02862816 -27.34638596 23.13007736 C-27.35402159 20.48407063 -27.34237204 17.83882148 -27.32568359 15.19287109 C-27.33175629 14.41671448 -27.33782898 13.64055786 -27.34408569 12.84088135 C-27.27640106 7.03555433 -26.08551257 2.83551257 -21.9375 -1.3125 C-15.37346697 -2.47382892 -5.82726065 -3.94749915 0 0 Z " fill="#000000" transform="translate(757.9375,101.3125)"/>
<path d="M0 0 C3.67047366 2.08796305 6.29331715 4.94019538 8.88623047 8.22070312 C9.71767578 9.16623047 9.71767578 9.16623047 10.56591797 10.13085938 C16.5298021 17.52674958 16.56585904 26.15898889 15.88623047 35.22070312 C14.52948908 43.3383491 11.18484288 49.93094873 4.58935547 54.97851562 C-4.60509142 60.88923148 -13.36116614 62.40482569 -24.11376953 60.22070312 C-33.73013039 56.64127992 -40.2168681 51.22649886 -45.11376953 42.22070312 C-48.94670972 32.83858087 -49.01519313 24.59884211 -45.11376953 15.22070312 C-36.35589317 -0.1942506 -16.64329477 -6.13598948 0 0 Z " fill="#FAC01C" transform="translate(144.11376953125,0.779296875)"/>
<path d="M0 0 C4.24900461 4.01932869 6.7785555 9.38096419 7.13671875 15.234375 C6.78644755 21.03886912 4.91334815 25.67677498 1 30 C-3.82529591 33.8843085 -9.16127871 34.76150922 -15.25 34.5078125 C-20.82899545 33.47760027 -25.02560517 30.59339429 -28.4453125 26.1015625 C-31.01171799 21.56099894 -31.97953712 17.1475675 -31 12 C-28.73865814 5.15245357 -24.91399398 1.16299667 -18.625 -2.3125 C-12.0219116 -4.0418803 -5.94880432 -3.28575384 0 0 Z " fill="#000000" transform="translate(759,48)"/>
<path d="M0 0 C4.71640919 2.12371145 7.17619361 4.67202523 9.64453125 9.3125 C11.53917196 14.99642212 11.5375375 21.07997231 9.14453125 26.625 C6.39988822 31.4673345 1.87593779 34.35047821 -3.40234375 35.921875 C-9.04047448 37.04950115 -13.46266681 36.47161688 -18.421875 33.6875 C-22.04438067 31.11149597 -24.54940869 28.40094365 -26.35546875 24.3125 C-27.21666514 18.88909792 -26.93732044 14.09038016 -25.23046875 8.875 C-18.93143463 0.26632003 -10.39564844 -3.03421911 0 0 Z " fill="#000000" transform="translate(943.35546875,41.6875)"/>
<path d="M0 0 C0.66 0 1.32 0 2 0 C2 1.65 2 3.3 2 5 C1.34 5 0.68 5 0 5 C0 3.35 0 1.7 0 0 Z " fill="#141617" transform="translate(1168,155)"/>
<path d="M0 0 C2.97 0 5.94 0 9 0 C9 0.33 9 0.66 9 1 C6.03 1 3.06 1 0 1 C0 0.67 0 0.34 0 0 Z " fill="#141617" transform="translate(1132,73)"/>
</svg>
